<?xml version="1.0" encoding="UTF-8"?>
<svg id="Layer_2" data-name="Layer 2" xmlns="http://www.w3.org/2000/svg" xmlns:xlink="http://www.w3.org/1999/xlink" viewBox="0 0 420.35 308.5">
  <defs>
    <style>
      .cls-1 {
        stroke: url(#linear-gradient-3);
      }

      .cls-1, .cls-2, .cls-3, .cls-4, .cls-5, .cls-6, .cls-7, .cls-8, .cls-9, .cls-10, .cls-11, .cls-12, .cls-13, .cls-14, .cls-15, .cls-16, .cls-17, .cls-18, .cls-19, .cls-20, .cls-21, .cls-22, .cls-23, .cls-24, .cls-25, .cls-26, .cls-27, .cls-28, .cls-29, .cls-30, .cls-31, .cls-32, .cls-33, .cls-34, .cls-35, .cls-36, .cls-37, .cls-38, .cls-39, .cls-40, .cls-41, .cls-42, .cls-43, .cls-44, .cls-45, .cls-46, .cls-47, .cls-48, .cls-49, .cls-50, .cls-51, .cls-52, .cls-53, .cls-54, .cls-55, .cls-56, .cls-57, .cls-58, .cls-59, .cls-60, .cls-61, .cls-62, .cls-63, .cls-64, .cls-65, .cls-66 {
        fill: #fff;
        stroke-miterlimit: 10;
        stroke-width: 3px;
      }

      .cls-2 {
        stroke: url(#linear-gradient-4);
      }

      .cls-3 {
        stroke: url(#linear-gradient-2);
      }

      .cls-4 {
        stroke: url(#linear-gradient-9);
      }

      .cls-5 {
        stroke: url(#linear-gradient-5);
      }

      .cls-6 {
        stroke: url(#linear-gradient-8);
      }

      .cls-7 {
        stroke: url(#linear-gradient-6);
      }

      .cls-8 {
        stroke: url(#linear-gradient-7);
      }

      .cls-9 {
        stroke: url(#linear-gradient);
      }

      .cls-10 {
        stroke: url(#linear-gradient-40);
      }

      .cls-11 {
        stroke: url(#linear-gradient-41);
      }

      .cls-12 {
        stroke: url(#linear-gradient-43);
      }

      .cls-13 {
        stroke: url(#linear-gradient-42);
      }

      .cls-14 {
        stroke: url(#linear-gradient-49);
      }

      .cls-15 {
        stroke: url(#linear-gradient-48);
      }

      .cls-16 {
        stroke: url(#linear-gradient-47);
      }

      .cls-17 {
        stroke: url(#linear-gradient-46);
      }

      .cls-18 {
        stroke: url(#linear-gradient-45);
      }

      .cls-19 {
        stroke: url(#linear-gradient-44);
      }

      .cls-20 {
        stroke: url(#linear-gradient-38);
      }

      .cls-21 {
        stroke: url(#linear-gradient-35);
      }

      .cls-22 {
        stroke: url(#linear-gradient-34);
      }

      .cls-23 {
        stroke: url(#linear-gradient-37);
      }

      .cls-24 {
        stroke: url(#linear-gradient-29);
      }

      .cls-25 {
        stroke: url(#linear-gradient-26);
      }

      .cls-26 {
        stroke: url(#linear-gradient-32);
      }

      .cls-27 {
        stroke: url(#linear-gradient-31);
      }

      .cls-28 {
        stroke: url(#linear-gradient-33);
      }

      .cls-29 {
        stroke: url(#linear-gradient-30);
      }

      .cls-30 {
        stroke: url(#linear-gradient-28);
      }

      .cls-31 {
        stroke: url(#linear-gradient-25);
      }

      .cls-32 {
        stroke: url(#linear-gradient-27);
      }

      .cls-33 {
        stroke: url(#linear-gradient-24);
      }

      .cls-34 {
        stroke: url(#linear-gradient-39);
      }

      .cls-35 {
        stroke: url(#linear-gradient-36);
      }

      .cls-36 {
        stroke: url(#linear-gradient-52);
      }

      .cls-37 {
        stroke: url(#linear-gradient-51);
      }

      .cls-38 {
        stroke: url(#linear-gradient-58);
      }

      .cls-39 {
        stroke: url(#linear-gradient-60);
      }

      .cls-40 {
        stroke: url(#linear-gradient-54);
      }

      .cls-41 {
        stroke: url(#linear-gradient-53);
      }

      .cls-42 {
        stroke: url(#linear-gradient-59);
      }

      .cls-43 {
        stroke: url(#linear-gradient-50);
      }

      .cls-44 {
        stroke: url(#linear-gradient-56);
      }

      .cls-45 {
        stroke: url(#linear-gradient-55);
      }

      .cls-46 {
        stroke: url(#linear-gradient-65);
      }

      .cls-47 {
        stroke: url(#linear-gradient-62);
      }

      .cls-48 {
        stroke: url(#linear-gradient-66);
      }

      .cls-49 {
        stroke: url(#linear-gradient-64);
      }

      .cls-50 {
        stroke: url(#linear-gradient-61);
      }

      .cls-51 {
        stroke: url(#linear-gradient-63);
      }

      .cls-52 {
        stroke: url(#linear-gradient-57);
      }

      .cls-53 {
        stroke: url(#linear-gradient-20);
      }

      .cls-54 {
        stroke: url(#linear-gradient-22);
      }

      .cls-55 {
        stroke: url(#linear-gradient-21);
      }

      .cls-56 {
        stroke: url(#linear-gradient-19);
      }

      .cls-57 {
        stroke: url(#linear-gradient-11);
      }

      .cls-58 {
        stroke: url(#linear-gradient-15);
      }

      .cls-59 {
        stroke: url(#linear-gradient-16);
      }

      .cls-60 {
        stroke: url(#linear-gradient-17);
      }

      .cls-61 {
        stroke: url(#linear-gradient-18);
      }

      .cls-62 {
        stroke: url(#linear-gradient-23);
      }

      .cls-63 {
        stroke: url(#linear-gradient-10);
      }

      .cls-64 {
        stroke: url(#linear-gradient-13);
      }

      .cls-65 {
        stroke: url(#linear-gradient-14);
      }

      .cls-66 {
        stroke: url(#linear-gradient-12);
      }

      .cls-67 {
        isolation: isolate;
      }
    </style>
    <linearGradient id="linear-gradient" x1="402.4" y1="111.44" x2="365.2" y2="74.24" gradientUnits="userSpaceOnUse">
      <stop offset="0" stop-color="#9e5ca5"/>
      <stop offset="0" stop-color="#a160a7"/>
      <stop offset=".04" stop-color="#bf8dc0"/>
      <stop offset=".08" stop-color="#d4aed2"/>
      <stop offset=".11" stop-color="#e2c2dd"/>
      <stop offset=".13" stop-color="#e7cae1"/>
    </linearGradient>
    <linearGradient id="linear-gradient-2" x1="286.9" y1="257.94" x2="249.03" y2="220.07" xlink:href="#linear-gradient"/>
    <linearGradient id="linear-gradient-3" x1="212.53" y1="290.45" x2="171.85" y2="249.77" xlink:href="#linear-gradient"/>
    <linearGradient id="linear-gradient-4" x1="401.64" y1="117.64" x2="391.43" y2="107.44" xlink:href="#linear-gradient"/>
    <linearGradient id="linear-gradient-5" x1="383.79" y1="54.56" x2="378.05" y2="48.83" xlink:href="#linear-gradient"/>
    <linearGradient id="linear-gradient-6" x1="380.43" y1="96.89" x2="344.88" y2="61.34" xlink:href="#linear-gradient"/>
    <linearGradient id="linear-gradient-7" x1="420.48" y1="116.46" x2="351.41" y2="47.39" xlink:href="#linear-gradient"/>
    <linearGradient id="linear-gradient-8" x1="339.41" y1="72.58" x2="336.52" y2="69.69" xlink:href="#linear-gradient"/>
    <linearGradient id="linear-gradient-9" x1="351.12" y1="66.12" x2="346.66" y2="61.66" xlink:href="#linear-gradient"/>
    <linearGradient id="linear-gradient-10" x1="383.79" y1="54.56" x2="378.05" y2="48.83" xlink:href="#linear-gradient"/>
    <linearGradient id="linear-gradient-11" x1="380.26" y1="60.93" x2="346.63" y2="27.3" xlink:href="#linear-gradient"/>
    <linearGradient id="linear-gradient-12" x1="351.12" y1="66.12" x2="346.66" y2="61.66" xlink:href="#linear-gradient"/>
    <linearGradient id="linear-gradient-13" x1="332.91" y1="60.46" x2="310.19" y2="37.74" xlink:href="#linear-gradient"/>
    <linearGradient id="linear-gradient-14" x1="299.71" y1="123.45" x2="261.49" y2="85.22" xlink:href="#linear-gradient"/>
    <linearGradient id="linear-gradient-15" x1="304.36" y1="50.06" x2="272.32" y2="18.02" xlink:href="#linear-gradient"/>
    <linearGradient id="linear-gradient-16" x1="340.77" y1="100.72" x2="277.62" y2="37.57" xlink:href="#linear-gradient"/>
    <linearGradient id="linear-gradient-17" x1="339.41" y1="72.58" x2="336.52" y2="69.69" xlink:href="#linear-gradient"/>
    <linearGradient id="linear-gradient-18" x1="244.25" y1="130.33" x2="216.73" y2="102.81" xlink:href="#linear-gradient"/>
    <linearGradient id="linear-gradient-19" x1="180.6" y1="131.75" x2="168.23" y2="119.38" xlink:href="#linear-gradient"/>
    <linearGradient id="linear-gradient-20" x1="227.5" y1="111.55" x2="174.5" y2="58.55" xlink:href="#linear-gradient"/>
    <linearGradient id="linear-gradient-21" x1="249.77" y1="129.29" x2="189.2" y2="68.71" xlink:href="#linear-gradient"/>
    <linearGradient id="linear-gradient-22" x1="169.86" y1="136.28" x2="148.29" y2="114.71" xlink:href="#linear-gradient"/>
    <linearGradient id="linear-gradient-23" x1="179.94" y1="130.33" x2="168.61" y2="118.99" xlink:href="#linear-gradient"/>
    <linearGradient id="linear-gradient-24" x1="151.73" y1="132.29" x2="93.32" y2="73.88" xlink:href="#linear-gradient"/>
    <linearGradient id="linear-gradient-25" x1="187.87" y1="141" x2="91.93" y2="45.06" xlink:href="#linear-gradient"/>
    <linearGradient id="linear-gradient-26" x1="180.81" y1="131.55" x2="173.56" y2="124.3" xlink:href="#linear-gradient"/>
    <linearGradient id="linear-gradient-27" x1="127.29" y1="60.44" x2="89.49" y2="22.64" xlink:href="#linear-gradient"/>
    <linearGradient id="linear-gradient-28" x1="90.43" y1="167.19" x2="13.34" y2="90.11" xlink:href="#linear-gradient"/>
    <linearGradient id="linear-gradient-29" x1="59.94" y1="137.34" x2="27.28" y2="104.69" xlink:href="#linear-gradient"/>
    <linearGradient id="linear-gradient-30" x1="26.47" y1="168.61" x2="-.69" y2="141.46" xlink:href="#linear-gradient"/>
    <linearGradient id="linear-gradient-31" x1="29.6" y1="102.09" x2="2.46" y2="74.95" xlink:href="#linear-gradient"/>
    <linearGradient id="linear-gradient-32" x1="58.76" y1="93.72" x2="20.39" y2="55.35" xlink:href="#linear-gradient"/>
    <linearGradient id="linear-gradient-33" x1="48.62" y1="64.69" x2="34.46" y2="50.53" xlink:href="#linear-gradient"/>
    <linearGradient id="linear-gradient-34" x1="57.41" y1="53.69" x2="34.54" y2="30.82" xlink:href="#linear-gradient"/>
    <linearGradient id="linear-gradient-35" x1="68.75" y1="60.89" x2="49.04" y2="41.18" xlink:href="#linear-gradient"/>
    <linearGradient id="linear-gradient-36" x1="366.34" y1="259.28" x2="344.86" y2="237.8" xlink:href="#linear-gradient"/>
    <linearGradient id="linear-gradient-37" x1="343.49" y1="254.96" x2="337.06" y2="248.54" xlink:href="#linear-gradient"/>
    <linearGradient id="linear-gradient-38" x1="375.42" y1="232.53" x2="347.61" y2="204.72" xlink:href="#linear-gradient"/>
    <linearGradient id="linear-gradient-39" x1="371.13" y1="212.63" x2="357.51" y2="199.01" xlink:href="#linear-gradient"/>
    <linearGradient id="linear-gradient-40" x1="336.48" y1="267.13" x2="311.01" y2="241.66" xlink:href="#linear-gradient"/>
    <linearGradient id="linear-gradient-41" x1="355.46" y1="215.17" x2="319.34" y2="179.05" xlink:href="#linear-gradient"/>
    <linearGradient id="linear-gradient-42" x1="331.35" y1="236.39" x2="330.19" y2="235.23" xlink:href="#linear-gradient"/>
    <linearGradient id="linear-gradient-43" x1="388.95" y1="263.85" x2="324.17" y2="199.07" xlink:href="#linear-gradient"/>
    <linearGradient id="linear-gradient-44" x1="331.35" y1="236.39" x2="330.19" y2="235.23" xlink:href="#linear-gradient"/>
    <linearGradient id="linear-gradient-45" x1="343.49" y1="254.96" x2="337.06" y2="248.54" xlink:href="#linear-gradient"/>
    <linearGradient id="linear-gradient-46" x1="267.88" y1="266.54" x2="266.76" y2="265.41" xlink:href="#linear-gradient"/>
    <linearGradient id="linear-gradient-47" x1="284.25" y1="211.25" x2="260.3" y2="187.29" xlink:href="#linear-gradient"/>
    <linearGradient id="linear-gradient-48" x1="267.88" y1="266.54" x2="266.76" y2="265.41" xlink:href="#linear-gradient"/>
    <linearGradient id="linear-gradient-49" x1="302.18" y1="278.13" x2="217.67" y2="193.62" xlink:href="#linear-gradient"/>
    <linearGradient id="linear-gradient-50" x1="290.78" y1="257.98" x2="260.1" y2="227.29" xlink:href="#linear-gradient"/>
    <linearGradient id="linear-gradient-51" x1="275.82" y1="258.3" x2="201.97" y2="184.45" xlink:href="#linear-gradient"/>
    <linearGradient id="linear-gradient-52" x1="199.6" y1="282.32" x2="191.42" y2="274.14" xlink:href="#linear-gradient"/>
    <linearGradient id="linear-gradient-53" x1="211.04" y1="294.74" x2="200.82" y2="284.52" xlink:href="#linear-gradient"/>
    <linearGradient id="linear-gradient-54" x1="182.74" y1="281.62" x2="181.44" y2="280.32" xlink:href="#linear-gradient"/>
    <linearGradient id="linear-gradient-55" x1="199.6" y1="282.32" x2="191.42" y2="274.14" xlink:href="#linear-gradient"/>
    <linearGradient id="linear-gradient-56" x1="192.92" y1="231.22" x2="187.44" y2="225.75" xlink:href="#linear-gradient"/>
    <linearGradient id="linear-gradient-57" x1="190.16" y1="273.46" x2="154.71" y2="238.01" xlink:href="#linear-gradient"/>
    <linearGradient id="linear-gradient-58" x1="165.66" y1="298.71" x2="164.36" y2="297.41" xlink:href="#linear-gradient"/>
    <linearGradient id="linear-gradient-59" x1="160.55" y1="243.2" x2="156.12" y2="238.78" xlink:href="#linear-gradient"/>
    <linearGradient id="linear-gradient-60" x1="198.4" y1="283.53" x2="164.03" y2="249.16" xlink:href="#linear-gradient"/>
    <linearGradient id="linear-gradient-61" x1="229.91" y1="293.54" x2="160.83" y2="224.47" xlink:href="#linear-gradient"/>
    <linearGradient id="linear-gradient-62" x1="192.2" y1="235.2" x2="158.72" y2="201.73" xlink:href="#linear-gradient"/>
    <linearGradient id="linear-gradient-63" x1="146.21" y1="291.8" x2="122.57" y2="268.15" xlink:href="#linear-gradient"/>
    <linearGradient id="linear-gradient-64" x1="125.37" y1="287.29" x2="66.51" y2="228.43" xlink:href="#linear-gradient"/>
    <linearGradient id="linear-gradient-65" x1="161.05" y1="295.56" x2="65.11" y2="199.62" xlink:href="#linear-gradient"/>
    <linearGradient id="linear-gradient-66" x1="100.46" y1="214.98" x2="62.68" y2="177.2" xlink:href="#linear-gradient"/>
  </defs>
  <g id="Layer_1-2" data-name="Layer 1">
    <g>
      <g>
        <rect class="cls-9" x="364.46" y="77.98" width="38.67" height="29.73"/>
        <rect class="cls-3" x="254.07" y="218.03" width="27.79" height="41.96"/>
        <rect class="cls-1" x="169.35" y="255.27" width="45.68" height="29.68"/>
      </g>
      <g>
        <g>
          <g class="cls-67">
            <path class="cls-2" d="M396.92,104.86l-.03,13.54-6.31-3.36c2.8-2.83,4.75-6.2,5.88-10.12l.46-.07Z"/>
            <path class="cls-5" d="M380.1,50.99s-.07,.01-.1,.03v-.08l.1,.06Z"/>
            <g>
              <path class="cls-7" d="M396.23,59.57v6.38s-15.84,2.17-15.84,2.17c-11.25,1.55-19.9,5.1-25.94,10.64-6.05,5.56-9.07,12.8-9.08,21.71-.01,8.18,2.41,14.32,7.27,18.43,.95,.81,1.96,1.5,3.05,2.1l-15.92-8.47c-1.2-.64-2.32-1.39-3.36-2.27-4.87-4.11-7.29-10.25-7.27-18.43,.01-8.54,2.8-15.55,8.36-21l.98-.14v-.79c2.62-2.37,5.75-4.36,9.35-5.99l1.07,.57,19.62-2.69,1.49-.21c0-1.04,.16-2.03,.47-2.97,.54-1.63,1.57-3.09,3.07-4.37,1.71-1.46,3.86-2.55,6.45-3.23,.03-.01,.06-.03,.1-.03,.95-.26,1.96-.46,3.03-.61,3.66-.49,6.59-.14,8.81,1.04,.11,.06,.23,.13,.33,.18,.19,.1,.34,.21,.51,.32,2.31,1.59,3.46,4.15,3.45,7.65Z"/>
              <path class="cls-8" d="M409.54,35.53c-.88-.64-1.81-1.21-2.78-1.73-.34-.18-.7-.36-1.05-.52-.3-.15-.6-.29-.91-.42-.03-.01-.06-.03-.09-.04-.31-.14-.64-.26-.98-.39-.13-.06-.26-.1-.38-.14-.04-.01-.09-.03-.14-.04-.33-.13-.65-.24-1.01-.33-.01,0-.03-.01-.04-.01-.2-.08-.4-.13-.6-.18-.37-.11-.75-.21-1.14-.29-.04-.01-.07-.01-.11-.03-.23-.07-.47-.13-.71-.17-.5-.11-1.01-.21-1.52-.29-.28-.04-.57-.08-.87-.11-.03-.01-.07-.01-.1-.01-.01,0-.04-.01-.06-.01-.14-.03-.27-.04-.41-.06h-.09s-.07-.01-.1-.01c-.23-.04-.47-.07-.7-.08h-.06s-.07-.01-.1-.01c-.54-.06-1.1-.1-1.65-.11,0,0-.01-.01-.03-.01h-.17c-.17-.01-.34-.03-.51-.03s-.34,0-.51-.01c-.34-.01-.68-.01-1.04-.01-.2,0-.41,0-.63,.01h-.44c-.3,0-.63,.01-.94,.03h-.17c-.51,.03-1.03,.06-1.54,.1-.64,.04-1.28,.1-1.92,.17-.65,.07-1.31,.15-1.96,.24-10.55,1.45-19.01,5.18-25.34,11.2-.9,.85-1.74,1.74-2.51,2.65-.33,.38-.64,.77-.94,1.16-.34,.43-.67,.88-.98,1.32h0c-.21,.32-.43,.63-.61,.93-.26,.4-.5,.79-.73,1.2-.06,.08-.11,.18-.16,.26-.2,.33-.38,.67-.56,1.02-.03,.06-.04,.1-.07,.15-.01,.03-.03,.06-.04,.08-.19,.36-.37,.74-.54,1.11-.16,.36-.31,.72-.46,1.09h0c-.1,.22-.19,.43-.26,.65-.09,.21-.16,.43-.23,.65-.03,.06-.04,.11-.06,.17-.11,.29-.2,.59-.28,.88-.1,.26-.17,.53-.24,.81-.06,.17-.1,.35-.14,.52-.11,.42-.21,.84-.3,1.27-.09,.42-.17,.82-.24,1.24-.04,.24-.09,.47-.11,.71-.01,.06-.01,.11-.01,.17-.07,.4-.11,.81-.16,1.23-.04,.26-.07,.54-.09,.81-.04,.35-.06,.7-.07,1.04-.01,.04-.01,.07-.01,.11-.01,.35-.03,.7-.04,1.06l19.62-2.69,1.49-.21c0-1.04,.16-2.03,.47-2.97,.54-1.63,1.57-3.09,3.07-4.37,1.71-1.46,3.86-2.55,6.45-3.23v-.08l.1,.06c.95-.26,1.96-.46,3.03-.61,3.66-.49,6.59-.14,8.81,1.04,.11,.06,.23,.13,.33,.18,.19,.1,.34,.21,.51,.32,2.31,1.59,3.46,4.15,3.45,7.65v6.38s-15.84,2.17-15.84,2.17c-11.25,1.55-19.9,5.1-25.94,10.64-6.05,5.56-9.07,12.8-9.08,21.71-.01,8.18,2.41,14.32,7.27,18.43,.95,.81,1.96,1.5,3.05,2.1,4.46,2.48,10.05,3.26,16.77,2.33,6.32-.86,11.55-2.91,15.69-6.13,.88-.68,1.69-1.41,2.43-2.17,2.8-2.83,4.75-6.2,5.88-10.12l.46-.07-.03,13.54,21.85-3.01,.11-58.92c.03-9.46-3.09-16.44-9.31-20.94Zm-13.37,53.82c0,4.04-1.44,7.48-4.3,10.31-.58,.57-1.18,1.09-1.82,1.55-2.55,1.94-5.58,3.15-9.13,3.62-.09,.01-.17,.03-.26,.03-.91,.13-1.75,.18-2.56,.18-.33,0-.64-.01-.94-.03-.51-.03-1-.08-1.47-.17-.2-.03-.38-.06-.56-.1-.57-.13-1.1-.28-1.59-.47-.26-.1-.5-.21-.73-.32-.5-.24-.95-.52-1.4-.84-2.24-1.64-3.39-4.18-3.43-7.62-.01-.11-.01-.24-.01-.35,0-3.5,1.14-6.4,3.4-8.67,2.08-2.09,4.9-3.46,8.46-4.08,.33-.07,.65-.13,.98-.17l1.57-.21,13.79-1.91v9.24Z"/>
            </g>
            <g>
              <path class="cls-6" d="M338.48,69.91v.79l-.98,.14c.24-.25,.48-.49,.73-.71,.09-.07,.17-.15,.26-.22Z"/>
              <path class="cls-4" d="M348.94,63.43c-.01,.35-.03,.7-.04,1.06l-1.07-.57c.36-.17,.73-.33,1.11-.49Z"/>
            </g>
            <path class="cls-63" d="M380,50.94v.08s.06-.03,.1-.03l-.1-.06Z"/>
            <g>
              <path class="cls-57" d="M406.77,33.8c-.34-.18-.7-.36-1.05-.52-.3-.15-.6-.29-.91-.42-.03-.01-.06-.03-.09-.04-.31-.14-.64-.26-.98-.39-.13-.06-.26-.1-.38-.14-.04-.01-.09-.03-.14-.04-.33-.13-.65-.24-1.01-.33-.01,0-.03-.01-.04-.01-.2-.08-.4-.13-.6-.18-.37-.11-.75-.22-1.14-.29-.04-.01-.07-.01-.11-.03-.23-.07-.47-.13-.71-.17-.5-.11-1.01-.21-1.52-.29-.28-.04-.57-.08-.87-.11-.03-.01-.07-.01-.1-.01-.01,0-.04-.01-.06-.01-.14-.03-.26-.06-.41-.06h-.09s-.07-.01-.1-.01c-.23-.04-.47-.07-.7-.08h-.06s-.07-.01-.1-.01c-.54-.06-1.1-.1-1.65-.11,0,0-.01-.01-.03-.01-.04-.01-.1-.01-.16,0h-.01c-.17-.01-.34-.03-.51-.03s-.34,0-.51-.01c-.34-.01-.68-.01-1.04-.01-.2,0-.41,0-.63,.01h-.44c-.3,0-.63,.01-.94,.03h-.17c-.51,.01-1.03,.04-1.54,.1-.64,.04-1.28,.1-1.92,.17-.65,.07-1.31,.15-1.96,.24-10.55,1.45-19.01,5.18-25.34,11.2-.9,.85-1.74,1.74-2.51,2.65-.33,.38-.64,.77-.94,1.16-.34,.43-.67,.88-.98,1.32h0c-.21,.32-.43,.63-.61,.93-.26,.4-.5,.79-.73,1.2-.06,.08-.11,.18-.16,.26-.2,.33-.38,.67-.56,1.02-.03,.06-.04,.1-.07,.15-.01,.03-.03,.06-.04,.08-.19,.36-.37,.74-.54,1.11-.16,.36-.31,.72-.46,1.09h0c-.1,.22-.19,.43-.26,.65-.09,.21-.16,.43-.23,.65-.03,.06-.04,.11-.06,.17-.11,.29-.2,.59-.28,.88-.1,.26-.17,.53-.24,.81-.06,.17-.1,.35-.14,.52-.11,.42-.21,.84-.3,1.27-.1,.4-.17,.82-.24,1.24-.04,.24-.09,.47-.11,.71-.01,.06-.01,.11-.01,.17-.07,.4-.11,.81-.16,1.23-.04,.26-.07,.54-.09,.81-.04,.35-.06,.7-.07,1.04-.01,.04-.01,.07-.01,.11-.38,.15-.75,.32-1.11,.49-3.6,1.63-6.73,3.62-9.35,5.99l.03-10.96v-9.75s-4.4-2.35-4.4-2.35c1.55-5,4.36-9.43,8.4-13.28,6.35-6.02,14.81-9.75,25.35-11.2,9.24-1.27,16.8-.33,22.69,2.8l16.21,8.64Z"/>
              <path class="cls-66" d="M348.94,63.43c-.01,.35-.03,.7-.04,1.06l-1.07-.57c.36-.17,.73-.33,1.11-.49Z"/>
            </g>
          </g>
          <g class="cls-67">
            <polygon class="cls-64" points="338.52 49.19 333.34 49.91 308.23 53.36 308.24 42.49 322.29 40.56 334.11 46.84 338.52 49.19"/>
            <polygon class="cls-65" points="285.56 77.98 285.45 133.72 269.22 125.09 269.3 80.21 285.56 77.98"/>
            <path class="cls-58" d="M338.58,10.19l-24.26,3.33c-8.56,1.18-15.47,4.6-20.76,10.25-5.28,5.67-7.94,12.6-7.96,20.77l-.03,11.94-22.01,3.02-.03,21.5-8.43-4.49c-.67-3.97-1.95-7.52-3.84-10.62-1.12-1.85-2.43-3.52-3.93-4.99v-10.05s22.02-3.02,22.02-3.02v-11.94c.03-8.18,2.69-15.1,7.99-20.77,5.27-5.66,12.19-9.07,20.74-10.25l24.27-3.33,16.21,8.64Z"/>
            <g>
              <path class="cls-59" d="M308.23,42.5v10.87s25.1-3.46,25.1-3.46l5.18-.71v9.75s-.04,10.96-.04,10.96c-.09,.07-.17,.15-.26,.22-.24,.22-.48,.46-.73,.71l-29.31,4.03-.11,55.74-22.62,3.11,.11-55.74-16.26,2.23-5.75,.79,.03-21.5,22.01-3.02,.03-11.94c.01-8.18,2.68-15.1,7.96-20.77,5.28-5.66,12.2-9.07,20.76-10.25l24.26-3.33-.04,20.7-23.5,3.23c-2.02,.28-3.66,1.17-4.91,2.66-1.25,1.5-1.89,3.32-1.89,5.45v.26Z"/>
              <path class="cls-60" d="M338.48,69.91v.79l-.98,.14c.24-.25,.48-.49,.73-.71,.09-.07,.17-.15,.26-.22Z"/>
            </g>
          </g>
          <g class="cls-67">
            <path class="cls-61" d="M254.88,114.05l-22.15,3.05c-1.42,4.96-5.69,7.94-12.83,8.93-1.38,.19-2.68,.26-3.86,.21-.14,0-.28-.01-.41-.01-.04-.01-.1-.01-.14-.01-.34-.03-.68-.06-1-.11-.19-.01-.36-.04-.51-.08-.44-.07-.87-.17-1.27-.28-.2-.06-.38-.11-.57-.18-.17-.06-.36-.13-.53-.21-.24-.08-.46-.18-.67-.29-.17-.08-.36-.18-.53-.28-2.55-1.46-4.23-4.01-5.03-7.68,6.11-1.21,9.79-4.1,11.1-8.64l22.17-3.05,16.21,8.64Z"/>
            <path class="cls-56" d="M177.54,127.08v3.2c-1.1-.84-2.12-1.77-3.05-2.79-.98-1.06-1.86-2.22-2.65-3.46l5.69,3.04Z"/>
            <path class="cls-53" d="M241.43,56.58c-.23-.13-.46-.24-.68-.33-.28-.15-.58-.29-.87-.42-.36-.17-.71-.32-1.08-.47-5.38-2.17-11.73-2.76-19.06-1.76-7.33,1.02-13.75,3.36-19.23,7.02-5.48,3.68-9.71,8.35-12.68,14-2.98,5.67-4.47,12.01-4.48,19l-.04,20.72c-.01,7.01,1.45,12.93,4.41,17.78,.26,.43,.54,.85,.81,1.25,.06,.08,.11,.17,.17,.24,.28,.42,.6,.82,.91,1.21,.9,1.13,1.89,2.17,2.98,3.12,.17,.15,.34,.31,.51,.45,.78,.65,1.62,1.28,2.51,1.84,.43,.28,.85,.53,1.3,.77,.04,.04,.09,.07,.13,.08l-15.8-8.42c-1.31-.7-2.53-1.49-3.67-2.38v-3.2l-5.69-3.04c-.14-.18-.26-.38-.37-.56-2.95-4.85-4.43-10.77-4.41-17.78l.04-20.72c.01-6.99,1.51-13.33,4.48-19,2.98-5.66,7.2-10.32,12.7-14,5.47-3.66,11.89-6,19.22-7.02,7.35-1,13.7-.42,19.06,1.76,.93,.38,1.79,.78,2.65,1.23l16.21,8.64Z"/>
            <path class="cls-55" d="M234.11,84.97c0-.35-.03-.7-.04-1.03-.03-.4-.07-.79-.11-1.18-.03-.26-.06-.5-.1-.75-.01-.21-.06-.4-.09-.6-.06-.32-.11-.64-.19-.95-.09-.4-.19-.79-.28-1.16-.09-.28-.17-.56-.27-.82-.07-.21-.14-.42-.23-.61,0-.03-.01-.06-.03-.07-.07-.18-.14-.33-.21-.5-.19-.43-.4-.82-.63-1.2-.1-.17-.21-.33-.33-.5-.1-.15-.2-.29-.31-.43-.01-.01-.01-.03-.03-.04-.24-.32-.51-.61-.78-.89-.07-.07-.13-.14-.2-.2-.07-.07-.14-.13-.21-.18-.14-.14-.28-.25-.43-.36-.46-.35-.94-.65-1.45-.92-2.22-1.11-5.05-1.44-8.5-.96-.8,.11-1.55,.25-2.28,.45-3.8,.91-6.75,2.76-8.81,5.53-.94,1.25-1.69,2.66-2.26,4.21h0c-.95,2.56-1.44,5.52-1.44,8.88v2.4s29.24-4.35,29.24-4.35v-2.38c0-.46,0-.92-.03-1.37Zm21.55,14.66l.03-15.94c0-2.52-.19-4.92-.57-7.16-.67-3.97-1.95-7.52-3.84-10.62-1.12-1.85-2.43-3.52-3.93-4.99-1.91-1.88-4.11-3.44-6.61-4.67-.28-.15-.58-.29-.87-.42-.36-.17-.71-.32-1.08-.47-5.38-2.17-11.73-2.76-19.06-1.76-7.33,1.02-13.75,3.36-19.23,7.02-5.48,3.68-9.71,8.35-12.68,14-2.98,5.67-4.47,12.01-4.48,19l-.04,20.72c-.01,7.01,1.45,12.93,4.41,17.78,.26,.43,.54,.85,.81,1.25,.06,.08,.11,.17,.17,.24,.3,.42,.6,.82,.91,1.21,.9,1.13,1.89,2.17,2.98,3.12,.17,.15,.34,.31,.51,.45,.78,.65,1.62,1.28,2.51,1.84,.43,.26,.85,.53,1.3,.77,.04,.04,.09,.07,.13,.08,1.05,.59,2.16,1.11,3.33,1.57,5.47,2.16,11.87,2.73,19.2,1.73,8.95-1.23,16.63-4.63,23.02-10.17,6.39-5.55,10.51-12.27,12.31-20.16l-22.15,3.05c-1.42,4.96-5.69,7.94-12.83,8.93-1.38,.19-2.68,.26-3.86,.21-.14,0-.28-.01-.41-.01-.04-.01-.1-.01-.14-.01-.34-.03-.68-.06-1-.11-.19-.01-.36-.04-.51-.08-.44-.07-.87-.17-1.27-.28-.2-.06-.38-.11-.57-.18-.17-.06-.36-.13-.53-.21-.24-.08-.46-.18-.67-.29-.17-.08-.36-.18-.53-.28-2.55-1.46-4.23-4.01-5.03-7.68-.37-1.67-.54-3.58-.54-5.73v-4.78l50.81-6.98Z"/>
          </g>
          <g class="cls-67">
            <g>
              <path class="cls-54" d="M174.49,127.5l-20.33,2.79c-.73,.1-1.42,.13-2.06,.07-.06,.01-.11,0-.17,0-.16-.01-.31-.03-.46-.07-.24-.03-.47-.07-.68-.13-.23-.06-.46-.13-.67-.21-.03,0-.06-.01-.09-.03-.26-.1-.51-.21-.75-.33-.6-.32-1.15-.74-1.67-1.27-.67-.67-1.2-1.46-1.58-2.35-.6-1.34-.9-2.93-.9-4.78v-.52l16.19-2.23,10.52,5.6c.78,1.24,1.67,2.4,2.65,3.46Z"/>
              <path class="cls-62" d="M177.54,127.08l-3.05,.42c-.98-1.06-1.86-2.22-2.65-3.46l5.69,3.04Z"/>
            </g>
            <path class="cls-33" d="M134.25,149.16l-15.36-8.16c-3.76-1.99-6.73-4.93-8.93-8.81-2.46-4.33-3.69-9.59-3.67-15.73l.1-52.85,16.24-2.23-.11,63.71c-.01,6.14,1.21,11.4,3.66,15.73,.36,.63,.74,1.24,1.14,1.81,.26,.39,.53,.75,.81,1.11,.13,.17,.26,.33,.43,.5,.17,.24,.37,.47,.58,.7,.16,.2,.34,.39,.54,.59,.2,.22,.43,.45,.65,.65,.21,.22,.44,.42,.67,.6,.17,.17,.33,.31,.5,.42,.23,.21,.46,.39,.7,.56,.23,.2,.46,.36,.7,.5,.24,.18,.48,.35,.74,.5,.2,.14,.41,.26,.61,.39Z"/>
            <g>
              <path class="cls-31" d="M177.53,130.29l-.04,18.29-25.62,3.52c-5.84,.81-10.96,.21-15.37-1.78-.53-.24-1.04-.49-1.52-.77-.03,0-.06-.01-.09-.04-.21-.11-.43-.24-.64-.35-.2-.13-.41-.25-.61-.39-.26-.15-.5-.32-.74-.5-.24-.15-.47-.32-.7-.5-.24-.17-.47-.35-.7-.56-.17-.11-.33-.25-.5-.42-.23-.18-.46-.38-.67-.6-.23-.21-.46-.43-.65-.65-.2-.2-.38-.39-.54-.59-.21-.22-.41-.46-.58-.7-.17-.17-.3-.33-.43-.5-.28-.36-.56-.74-.81-1.11-.4-.57-.78-1.18-1.14-1.81-2.45-4.33-3.67-9.59-3.66-15.73l.11-63.71-16.24,2.23-10.14,1.39,.04-21.5,49.01-6.74-.17,83.9v.52c0,1.85,.3,3.44,.9,4.78,.38,.89,.91,1.69,1.58,2.35,.51,.53,1.07,.95,1.67,1.27,.24,.13,.5,.24,.75,.33,.03,.01,.06,.03,.09,.03,.21,.08,.44,.15,.67,.21,.21,.06,.44,.1,.68,.13,.14,.04,.3,.06,.46,.07,.06,0,.11,.01,.17,0,.64,.06,1.34,.03,2.06-.07l20.33-2.79c.93,1.02,1.95,1.95,3.05,2.79Z"/>
              <path class="cls-25" d="M177.54,127.08v3.2c-1.1-.84-2.12-1.77-3.05-2.79l3.05-.42Z"/>
            </g>
            <polygon class="cls-32" points="145.3 36.77 96.29 43.52 96.24 65.02 80.01 56.38 80.06 34.88 129.07 28.14 145.3 36.77"/>
          </g>
          <g class="cls-67">
            <polygon class="cls-30" points="94.91 138.43 94.87 159.95 20.98 170.1 21.03 148.6 4.8 139.97 32.24 136.19 48.46 144.83 48.54 100.23 32.32 102.46 24.12 103.59 24.16 82.09 71.21 75.63 71.11 130.84 78.68 129.8 94.91 138.43"/>
            <polygon class="cls-24" points="48.54 100.23 48.46 144.83 32.24 136.19 32.32 102.46 48.54 100.23"/>
            <polygon class="cls-29" points="21.03 148.6 20.98 170.1 4.75 161.46 4.8 139.97 21.03 148.6"/>
            <polygon class="cls-27" points="24.16 82.09 24.12 103.59 7.9 94.95 7.94 73.45 24.16 82.09"/>
            <polygon class="cls-26" points="71.21 75.63 24.16 82.09 7.94 73.45 54.99 66.99 71.21 75.63"/>
          </g>
          <g class="cls-67">
            <path class="cls-28" d="M50.35,62.35l-16.22-8.64c-.48-.25-.93-.54-1.35-.87l16.22,8.64c.43,.33,.88,.62,1.35,.87Z"/>
            <path class="cls-22" d="M51.2,31.09l16.22,8.64c-2.27-1.21-5.1-1.57-8.51-1.11-4.12,.57-7.41,2.13-9.88,4.7-2.47,2.57-3.7,5.77-3.71,9.59s1.22,6.68,3.68,8.57l-16.22-8.64c-2.46-1.89-3.68-4.76-3.68-8.57s1.24-7.02,3.71-9.59c2.47-2.57,5.77-4.13,9.88-4.7,3.41-.47,6.24-.1,8.51,1.11Z"/>
            <path class="cls-21" d="M49,61.48c-2.46-1.89-3.68-4.76-3.68-8.57s1.24-7.02,3.71-9.59c2.47-2.57,5.77-4.13,9.88-4.7s7.41,.09,9.87,1.98c2.46,1.89,3.68,4.76,3.68,8.57s-1.24,7.02-3.71,9.59c-2.47,2.57-5.75,4.13-9.88,4.7s-7.41-.09-9.87-1.98Z"/>
          </g>
        </g>
        <g>
          <g class="cls-67">
            <path class="cls-35" d="M372.21,247.45v.06c-.01,5.74-4.23,9.18-12.68,10.34l-6.62,.92c-.58,.07-1.14,.14-1.68,.18-.88,.07-1.69,.07-2.45,.03-.19,0-.36-.01-.53-.04-.21,0-.43-.03-.63-.06h-.01c-.2-.03-.4-.07-.6-.11h-.03c-.1-.01-.2-.03-.28-.06-.04-.01-.09-.01-.13-.03-.19-.06-.37-.1-.56-.15-.01,0-.03,0-.04-.01-.24-.07-.48-.15-.71-.25-.11-.04-.23-.1-.33-.14-.11-.06-.23-.1-.33-.15-.01-.01-.03-.01-.04-.03-1.89-1.03-2.96-2.8-3.2-5.32-.04-.38-.06-.77-.06-1.18l-2.9-1.55,4.9-.68c8.1-1.1,12.31-4.31,12.66-9.61h4.53c3.42,.03,6.09,.54,8.01,1.56,.26,.13,.48,.26,.71,.42,.07,.04,.13,.08,.19,.13,.1,.07,.2,.14,.3,.22,.1,.07,.19,.14,.27,.22,.21,.18,.41,.38,.6,.59,.37,.4,.67,.85,.9,1.32,.03,.03,.04,.06,.04,.07,.11,.24,.21,.46,.3,.71,.04,.13,.09,.26,.13,.4,.03,.14,.07,.28,.1,.42,.06,.25,.1,.5,.13,.75,0,.07,.01,.15,.01,.22,.03,.26,.04,.54,.04,.82Z"/>
            <path class="cls-23" d="M341.36,252.62l-1.78-.95,1.72-.24c0,.42,.01,.81,.06,1.18Z"/>
            <path class="cls-20" d="M383.24,224.09c-.11-.07-.23-.13-.34-.17-.36-.18-.73-.35-1.11-.52-.81-.35-1.67-.67-2.56-.95-.31-.11-.64-.2-.97-.29-1.24-.35-2.55-.64-3.93-.86-.36-.07-.71-.13-1.07-.17-.41-.07-.81-.11-1.22-.17-.48-.06-.97-.1-1.48-.14-.53-.04-1.08-.08-1.64-.11-.57-.04-1.14-.06-1.71-.07-.57-.01-1.14-.03-1.72-.03h-.46l-12.2-.07c-.41,0-.8-.01-1.18-.04-.36-.01-.71-.04-1.04-.1-.26-.01-.48-.04-.73-.08-.21-.03-.43-.07-.63-.11-.84-.17-1.59-.39-2.26-.68-.17-.07-.33-.14-.48-.22-.13-.06-.24-.13-.37-.2-1.45-.84-2.39-2.05-2.8-3.62-.2-.67-.28-1.41-.28-2.2,0-.46,.03-.91,.1-1.34l5.67,.03c7.7-.04,13.88,1.17,18.52,3.64l15.9,8.47Z"/>
            <path class="cls-34" d="M370.18,209.55v.03l-11.43-6.09,.74-.1c3.32-.46,5.87-.25,7.64,.6,.03,0,.04,.01,.07,.03h.01c.23,.14,.44,.26,.64,.4,.1,.06,.2,.13,.28,.21,.11,.08,.23,.18,.33,.28,.07,.06,.13,.11,.19,.18,.16,.15,.3,.32,.41,.49,.14,.18,.27,.38,.37,.6,.03,.04,.06,.08,.06,.13,0,.01,.01,.01,.01,.03,.1,.18,.17,.36,.24,.54,.01,.04,.03,.08,.04,.13,.06,.14,.1,.29,.13,.45,0,.03,.01,.04,.01,.07,.04,.11,.07,.24,.09,.36,.04,.21,.09,.43,.1,.67,.01,.03,.01,.07,.01,.11,.03,.29,.04,.59,.04,.89Z"/>
            <path class="cls-10" d="M341.3,251.43l-1.72,.24-5.41,.74h-.01l-15.47,2.13c-.01,5.42,1.42,9.95,4.27,13.58,.31,.4,.65,.81,1,1.18,.13,.13,.24,.25,.37,.38,.28,.32,.6,.63,.93,.92,.06,.06,.11,.11,.17,.15,.4,.36,.81,.71,1.24,1.03,.46,.36,.94,.71,1.44,1.03,.41,.28,.85,.54,1.3,.78l-15.66-8.32c-1.75-.93-3.32-2.03-4.68-3.3,.95-3.59,1.51-7.5,1.64-11.7,.01-.6,.03-1.2,.03-1.8v-3.71l14.36-1.98,13.33,7.09,2.9,1.55Z"/>
            <g>
              <path class="cls-11" d="M382.08,187.91c-.48-.25-.97-.49-1.48-.71-.5-.22-1.03-.43-1.55-.63-.03-.01-.06-.01-.09-.03-.01-.01-.03-.01-.06-.03-.5-.18-1.03-.35-1.55-.5-.2-.06-.4-.11-.6-.17-.38-.11-.77-.2-1.17-.29-.09-.01-.17-.04-.26-.06-.04-.01-.1-.01-.14-.03-.4-.08-.81-.17-1.22-.24-.03,0-.06-.01-.09-.01-.26-.06-.51-.08-.78-.13-.03-.01-.06-.01-.09-.01-.47-.07-.95-.14-1.45-.18-.09-.01-.19-.03-.28-.03-.53-.06-1.08-.1-1.64-.13-.1-.01-.21-.01-.33-.01h-.07c-.06,0-.13-.01-.19-.01-.6-.03-1.22-.04-1.85-.04-2.42,0-4.98,.18-7.69,.56l-5.72,.79c-10.66,1.46-18.75,4.75-24.29,9.86s-8.31,11.91-8.33,20.41c0,.77,.01,1.5,.07,2.23,.01,.36,.04,.71,.07,1.04,.01,.25,.04,.5,.09,.75,0,.13,.01,.24,.04,.35,.09,.75,.2,1.49,.36,2.2,.03,.17,.07,.32,.1,.49,.06,.22,.11,.45,.17,.67,.3,1.17,.68,2.27,1.14,3.32,.07,.2,.16,.38,.26,.56,.65,1.37,1.45,2.62,2.39,3.75,.11,.17,.26,.32,.4,.47,.04,.06,.1,.11,.16,.17,.17,.18,.34,.38,.54,.56,.01,.03,.03,.04,.06,.07,.48,.49,1,.93,1.55,1.37,.1,.08,.21,.17,.33,.25,.14,.11,.28,.21,.43,.31,.26,.2,.53,.38,.81,.54,.06,.04,.13,.08,.2,.13,.13,.08,.26,.17,.4,.25l-15.46-8.22c-1.74-.92-3.25-2.02-4.54-3.32-.24-8.14-2.12-14.7-5.64-19.66h0c.61-7.08,3.35-12.85,8.19-17.32,5.54-5.11,13.64-8.4,24.3-9.86l5.72-.79c9.28-1.27,16.84-.36,22.68,2.73l16.1,8.58Z"/>
              <path class="cls-13" d="M331.12,235.98c-.13-.07-.26-.14-.38-.21-.14-.08-.27-.17-.4-.25,.26,.17,.51,.32,.78,.46Z"/>
            </g>
            <g>
              <path class="cls-12" d="M394.08,244.17c-.01,8.6-2.95,15.67-8.78,21.19-5.84,5.53-14.45,9.07-25.8,10.63l-6.63,.92c-6.83,.93-12.81,.61-17.94-.96-2.02-.61-3.87-1.39-5.54-2.35-.44-.24-.88-.5-1.3-.78-.5-.32-.98-.67-1.44-1.03-.43-.32-.84-.67-1.24-1.03-.06-.04-.11-.1-.17-.15-.33-.29-.64-.6-.93-.92-.13-.13-.24-.25-.37-.38-.34-.38-.68-.78-1-1.18-2.85-3.64-4.29-8.16-4.27-13.58l15.47-2.13h.01l5.41-.74,1.78,.95c.24,2.52,1.31,4.29,3.2,5.32,.01,.01,.03,.01,.04,.03,.1,.06,.21,.1,.33,.15,.1,.04,.21,.1,.33,.14,.23,.1,.47,.18,.71,.25,.01,.01,.03,.01,.04,.01,.19,.06,.37,.1,.56,.15,.04,.01,.09,.01,.13,.03,.09,.03,.19,.04,.28,.06h.03c.2,.04,.4,.08,.6,.11h.01c.2,.03,.41,.06,.63,.06,.17,.03,.34,.04,.53,.04,.75,.04,1.57,.04,2.45-.03,.54-.04,1.1-.1,1.68-.18l6.62-.92c8.46-1.16,12.67-4.6,12.68-10.34v-.06c0-.28-.01-.56-.04-.82,0-.07-.01-.15-.01-.22-.03-.25-.07-.5-.13-.75-.03-.14-.07-.28-.1-.42-.04-.14-.09-.28-.13-.4-.09-.25-.19-.47-.3-.71,0-.01-.01-.04-.04-.07-.23-.47-.53-.92-.9-1.32-.19-.21-.38-.4-.6-.59-.09-.08-.17-.15-.27-.22-.1-.08-.2-.15-.3-.22-.06-.04-.11-.08-.19-.13-.23-.15-.46-.29-.71-.42-1.92-1.02-4.6-1.53-8.01-1.57h-4.53s-7.39,.03-7.39,.03c-7.26,.03-13.08-1.17-17.45-3.62-.27-.14-.53-.29-.78-.46-.07-.04-.14-.08-.2-.13-.28-.17-.56-.35-.81-.54-.14-.1-.28-.2-.43-.31-.11-.08-.23-.17-.33-.25-.56-.43-1.07-.88-1.55-1.37-.03-.03-.04-.04-.06-.07-.2-.18-.37-.38-.54-.56-.06-.06-.11-.11-.16-.17-.14-.15-.27-.31-.4-.47-.94-1.13-1.74-2.38-2.39-3.75-.1-.18-.18-.36-.26-.56-.46-1.04-.84-2.15-1.14-3.32-.06-.22-.11-.45-.17-.67-.03-.17-.07-.32-.1-.49-.16-.71-.27-1.45-.36-2.2-.03-.11-.04-.22-.04-.35-.04-.25-.07-.5-.09-.75-.03-.33-.06-.68-.07-1.04-.06-.72-.07-1.46-.07-2.23,.01-8.5,2.79-15.3,8.33-20.41,5.54-5.11,13.62-8.4,24.29-9.86l5.72-.79c2.7-.38,5.27-.56,7.69-.56,.63,0,1.25,.01,1.85,.04,.06,0,.13,.01,.19,.01h.07c.11,0,.23,0,.33,.01,.56,.03,1.11,.07,1.64,.13,.1,0,.2,.01,.28,.03,.5,.04,.98,.11,1.45,.18,.03,0,.06,0,.09,.01,.27,.04,.53,.07,.78,.13,.03,0,.06,.01,.09,.01,.41,.07,.83,.15,1.22,.24,.04,.01,.1,.01,.14,.03,.09,.01,.17,.04,.26,.06,.4,.1,.78,.18,1.17,.29,.2,.06,.4,.11,.6,.17,.53,.15,1.05,.32,1.55,.5,.03,.01,.04,.01,.06,.03,.03,.01,.06,.01,.09,.03,.53,.2,1.05,.4,1.55,.63,.51,.22,1,.46,1.48,.71,.04,.01,.07,.04,.11,.06,.56,.29,1.08,.6,1.59,.93,6.02,3.85,9.03,9.7,9.01,17.56l-22.62,3.12v-.03c0-.31-.01-.6-.04-.89,0-.04,0-.08-.01-.11-.01-.24-.06-.46-.1-.67-.01-.13-.04-.25-.09-.36,0-.03-.01-.04-.01-.07-.03-.15-.07-.31-.13-.45-.01-.04-.03-.08-.04-.13-.07-.18-.13-.38-.24-.54,0-.01-.01-.01-.01-.03,0-.04-.03-.08-.06-.13-.1-.22-.23-.42-.37-.6-.11-.17-.26-.33-.41-.49-.06-.07-.11-.13-.19-.18-.1-.1-.21-.2-.33-.28-.09-.08-.19-.15-.28-.21-.2-.14-.41-.26-.64-.39h-.01s-.04-.04-.07-.04c-1.78-.85-4.33-1.06-7.64-.6l-.74,.1-4.98,.7c-6.49,.89-10.04,3.48-10.62,7.77-.07,.43-.1,.88-.1,1.34,0,.79,.09,1.53,.28,2.2,.41,1.57,1.35,2.79,2.8,3.62,.13,.07,.24,.14,.37,.19,.16,.08,.31,.15,.48,.22,.67,.29,1.42,.52,2.26,.68,.2,.04,.41,.08,.63,.11,.24,.04,.47,.07,.73,.08,.33,.06,.68,.08,1.04,.1,.38,.03,.77,.04,1.18,.04l12.2,.07h.46c.58,0,1.15,.01,1.72,.03s1.14,.03,1.71,.07c.56,.03,1.11,.07,1.64,.11,.51,.04,1,.08,1.48,.14,.41,.06,.81,.1,1.22,.17,.36,.04,.71,.1,1.07,.17,1.38,.22,2.69,.52,3.93,.86,.33,.1,.65,.18,.97,.29,.9,.28,1.75,.6,2.56,.95,.38,.17,.75,.33,1.11,.52,7.47,3.68,11.2,10.42,11.19,20.24Z"/>
              <path class="cls-19" d="M331.12,235.98c-.13-.07-.26-.14-.38-.21-.14-.08-.27-.17-.4-.25,.26,.17,.51,.32,.78,.46Z"/>
              <path class="cls-18" d="M341.36,252.62l-1.78-.95,1.72-.24c0,.42,.01,.81,.06,1.18Z"/>
            </g>
          </g>
          <g class="cls-67">
            <path class="cls-17" d="M267.6,266.09c-.11-.06-.23-.11-.34-.17l-.27-.15c.2,.11,.4,.22,.61,.32Z"/>
            <path class="cls-16" d="M297.16,197.59c-.19-.08-.37-.18-.57-.25-1.49-.7-3.08-1.2-4.74-1.5-.2-.04-.4-.07-.6-.1-.31-.06-.63-.1-.95-.14-.09-.01-.18-.03-.27-.03-.36-.04-.73-.07-1.1-.08-.06-.01-.11-.01-.17-.01-.46-.03-.91-.04-1.38-.04-1.34,0-2.72,.1-4.16,.29-5.62,.78-10.38,2.87-14.26,6.27-3.86,3.4-6.46,7.83-7.79,13.33l.8-19.87v-7.26c1.61-.5,3.27-.88,5.04-1.11,5.52-.75,10.31-.06,14.38,2.12l15.77,8.39Z"/>
            <g>
              <path class="cls-15" d="M266.98,265.77l.27,.15c.11,.06,.23,.11,.34,.17-.21-.1-.41-.21-.61-.32Z"/>
              <path class="cls-14" d="M310.72,224.24c-.24-8.14-2.12-14.7-5.64-19.66h0c-.57-.81-1.18-1.57-1.84-2.28-1.74-1.91-3.67-3.43-5.79-4.54-.1-.06-.2-.1-.3-.15-.19-.08-.37-.18-.57-.25-1.49-.7-3.08-1.2-4.74-1.5-.2-.04-.4-.07-.6-.1-.31-.06-.63-.1-.95-.14-.09-.01-.19-.03-.27-.03-.36-.04-.73-.07-1.1-.08-.06-.01-.11-.01-.17-.01-.46-.03-.91-.04-1.38-.04-1.34,0-2.72,.1-4.16,.29-5.62,.78-10.38,2.87-14.26,6.27-3.86,3.4-6.46,7.83-7.79,13.33l.8-19.87v-7.26s.04-16.62,.04-16.62l-22.61,3.11-.23,116.27,21.87-3.01v-7.83s8.54,4.54,8.54,4.54c-.31-.17-.63-.35-.93-.54,3.86,2.38,8.66,3.19,14.39,2.4,8.34-1.14,15.03-5.14,20.07-12,2.69-3.66,4.67-7.84,5.92-12.54,.95-3.59,1.51-7.5,1.64-11.7,.01-.6,.03-1.2,.03-1.8v-3.71l.04-18.6c0-.65-.01-1.31-.03-1.94Zm-22.64,26.56c0,4.57-1.14,8.26-3.4,11.06-2.28,2.8-5.52,4.5-9.74,5.07-.85,.13-1.64,.18-2.41,.18h-.07c-.37,0-.73-.01-1.07-.04-.36-.03-.7-.07-1.04-.13-.23-.03-.46-.08-.68-.14-.19-.03-.37-.08-.56-.14-.09-.01-.17-.04-.26-.07-.16-.04-.3-.1-.46-.15-.09-.03-.17-.06-.26-.1-.2-.08-.38-.17-.57-.25-.11-.06-.23-.11-.34-.17l-.27-.15c-.6-.36-1.15-.78-1.67-1.25-1.75-1.64-2.83-3.97-3.26-6.99-.14-.98-.2-2.01-.2-3.12l.04-20.7c0-4.56,1.18-8.26,3.49-11.08,1.65-1.99,3.76-3.43,6.32-4.28,1.04-.38,2.15-.63,3.35-.79,3.03-.42,5.55-.11,7.59,.91l.19,.1c.14,.07,.27,.15,.41,.24,.2,.13,.4,.25,.6,.4,.16,.1,.3,.22,.44,.33,.17,.14,.33,.28,.48,.43,2.26,2.19,3.39,5.57,3.37,10.13l-.04,20.7Z"/>
              <path class="cls-43" d="M288.14,230.09l-.04,20.7c0,4.57-1.14,8.26-3.4,11.06-2.28,2.8-5.52,4.5-9.74,5.07-.84,.11-1.64,.18-2.41,.18h-.07c-.37,0-.73-.01-1.07-.04-.36-.03-.7-.07-1.04-.13-.23-.03-.46-.08-.68-.14-.19-.04-.37-.08-.56-.14-.09-.01-.17-.04-.26-.07-.16-.04-.3-.1-.46-.15-.09-.03-.17-.06-.26-.1-.2-.08-.38-.17-.57-.25-.21-.1-.41-.21-.61-.32-.6-.36-1.15-.78-1.67-1.25-1.75-1.64-2.83-3.97-3.26-6.99,2.65-.85,4.77-2.28,6.41-4.31,2.26-2.8,3.4-6.49,3.42-11.06l.03-20.7c0-1.1-.06-2.15-.2-3.11,1.04-.38,2.15-.63,3.35-.79,3.03-.42,5.55-.11,7.59,.91l.18,.1c.14,.07,.27,.15,.41,.24,.2,.13,.4,.25,.6,.4,.16,.1,.3,.22,.44,.33,.17,.14,.33,.28,.48,.43,2.26,2.19,3.39,5.57,3.37,10.13Z"/>
            </g>
            <path class="cls-37" d="M262.01,171.59l-22.61,3.11-.23,116.27-10.99-5.85,.1-51.56c.01-7.08-1.72-12.76-5.21-17.07l.1-50.42,22.61-3.11,16.23,8.64Z"/>
          </g>
          <g class="cls-67">
            <g>
              <path class="cls-36" d="M199.49,278.29c-2.55,1.94-5.59,3.13-9.14,3.62-.09,.01-.17,.03-.24,.03l9.38-3.65Z"/>
              <path class="cls-41" d="M206.34,281.94l-.03,13.54-6.31-3.36c2.8-2.83,4.77-6.21,5.88-10.13l.46-.06Z"/>
            </g>
            <g>
              <path class="cls-40" d="M182.46,281.12c-.17-.08-.36-.17-.53-.25l-.3-.17c.27,.15,.54,.29,.83,.42Z"/>
              <path class="cls-45" d="M199.49,278.29c-2.55,1.94-5.59,3.13-9.14,3.62-.09,.01-.17,.03-.24,.03l9.38-3.65Z"/>
            </g>
            <path class="cls-44" d="M189.54,228.07s-.06,.01-.09,.01v-.07l.09,.06Z"/>
            <g>
              <path class="cls-52" d="M205.67,236.65v6.38l-15.84,2.17c-11.26,1.55-19.9,5.1-25.95,10.66-6.04,5.55-9.05,12.79-9.08,21.71-.01,8.18,2.41,14.32,7.27,18.42,.2,.17,.4,.32,.6,.47,.2,.17,.4,.32,.61,.46,.14,.1,.27,.2,.41,.29,.28,.19,.57,.38,.85,.54,.14,.08,.28,.18,.44,.26l-14.28-7.59v-8.79s-11.53-6.14-11.53-6.14c-.4-2.02-.6-4.21-.6-6.56,.01-8.92,3.03-16.16,9.08-21.71,2.68-2.47,5.88-4.54,9.6-6.21l1.08,.57,19.6-2.7,1.49-.21c0-1.04,.17-2.03,.5-2.97,.54-1.63,1.57-3.08,3.06-4.37,1.72-1.46,3.87-2.55,6.46-3.25,.03,0,.06-.01,.09-.01h.01c.95-.25,1.95-.46,3.02-.6,3.66-.5,6.61-.15,8.83,1.03,.28,.15,.56,.32,.83,.5,2.31,1.6,3.46,4.15,3.45,7.65Z"/>
              <path class="cls-38" d="M165.42,298.26c-.14-.07-.27-.14-.4-.21-.01-.01-.03-.01-.04-.03-.16-.08-.3-.18-.44-.26,.28,.18,.58,.35,.88,.5Z"/>
              <path class="cls-42" d="M158.38,240.51c-.01,.35-.03,.71-.04,1.07l-1.08-.57c.37-.18,.74-.35,1.12-.5Z"/>
            </g>
            <g>
              <path class="cls-39" d="M190.11,281.94c.07,0,.16-.01,.24-.03,3.54-.49,6.59-1.69,9.14-3.62l-9.38,3.65Zm-25.57,15.81c.14,.08,.28,.18,.44,.26,.01,.01,.03,.01,.04,.03,.13,.07,.26,.14,.4,.21-.3-.15-.6-.32-.88-.5Zm17.1-17.05l.3,.17c.17,.08,.36,.17,.53,.25-.28-.13-.56-.26-.83-.42Zm7.82-52.69v.07s.06-.01,.09-.01l-.09-.06Zm.65,53.93c.07,0,.16-.01,.24-.03,3.54-.49,6.59-1.69,9.14-3.62l-9.38,3.65Zm0,0c.07,0,.16-.01,.24-.03,3.54-.49,6.59-1.69,9.14-3.62l-9.38,3.65Z"/>
              <path class="cls-50" d="M223.07,216.48c-1.17-1.45-2.53-2.74-4.1-3.87-.88-.64-1.81-1.21-2.79-1.73-.07-.03-.13-.07-.2-.1-.98-.52-2.02-.98-3.1-1.37-.57-.21-1.17-.4-1.77-.57-.51-.15-1.02-.29-1.57-.4-.01-.01-.04-.01-.07-.01-.19-.06-.38-.1-.58-.13-.51-.11-1.02-.21-1.55-.29-.56-.08-1.1-.17-1.67-.22-.23-.03-.46-.06-.68-.07-.44-.04-.88-.08-1.34-.1-.03-.01-.06-.01-.1,0-.16-.03-.31-.03-.47-.03-2.96-.15-6.15,.01-9.57,.49-10.56,1.45-19.01,5.18-25.35,11.2-.8,.75-1.54,1.53-2.24,2.33-.33,.38-.65,.75-.95,1.14-.3,.36-.58,.75-.85,1.13-.19,.24-.36,.47-.51,.72-.37,.54-.73,1.09-1.04,1.63-.16,.24-.28,.47-.41,.72-.61,1.07-1.14,2.17-1.58,3.32-.1,.21-.19,.43-.26,.64-.21,.56-.4,1.11-.56,1.67-.1,.26-.17,.53-.24,.81-.1,.29-.17,.59-.24,.89-.1,.4-.2,.81-.27,1.21-.06,.26-.11,.52-.16,.78-.04,.29-.1,.57-.14,.86-.03,.19-.06,.38-.07,.56-.04,.28-.09,.56-.1,.84-.04,.28-.07,.56-.09,.85-.03,.33-.06,.67-.07,1-.01,.04-.01,.08-.01,.13-.01,.35-.03,.71-.04,1.07l19.6-2.7,1.49-.21c0-1.04,.17-2.03,.5-2.97,.54-1.63,1.57-3.08,3.06-4.37,1.72-1.46,3.87-2.55,6.46-3.25v-.07l.09,.06h.01c.95-.25,1.95-.46,3.02-.6,3.66-.5,6.61-.15,8.83,1.03,.28,.15,.57,.32,.83,.5,2.31,1.6,3.46,4.15,3.45,7.65v6.38l-15.84,2.17c-11.26,1.55-19.9,5.1-25.95,10.66-6.04,5.55-9.05,12.79-9.08,21.71-.01,8.18,2.41,14.32,7.27,18.42,.2,.17,.4,.32,.6,.47,.2,.17,.4,.32,.61,.46,.14,.1,.27,.2,.41,.29,.28,.2,.57,.38,.85,.54,.28,.18,.58,.35,.88,.5,4.41,2.35,9.89,3.08,16.46,2.17,6.34-.88,11.56-2.91,15.69-6.13,.87-.68,1.69-1.41,2.43-2.17,2.8-2.83,4.77-6.21,5.88-10.13l.46-.06-.03,13.54,21.87-3.01v-7.37s.11-51.56,.11-51.56c.01-7.08-1.72-12.76-5.21-17.07Zm-17.47,49.96c0,4.03-1.44,7.47-4.31,10.31-.57,.57-1.17,1.09-1.81,1.55-2.55,1.94-5.59,3.13-9.14,3.62-.09,.01-.17,.03-.24,.03-.9,.11-1.75,.17-2.56,.17-.31,0-.61-.01-.91-.03-.53-.03-1.04-.08-1.52-.18-.17-.01-.34-.06-.51-.08-.26-.06-.51-.13-.77-.2-.27-.08-.53-.17-.78-.26-.2-.07-.4-.15-.58-.24-.17-.08-.36-.17-.53-.25l-.3-.17c-.27-.17-.53-.33-.77-.52-2.25-1.64-3.39-4.18-3.45-7.62l11.87-13.1c.31-.07,.63-.13,.95-.17l1.57-.21,13.82-1.89-.03,9.24Z"/>
            </g>
            <path class="cls-47" d="M215.99,210.77c-.98-.52-2.02-.98-3.1-1.37-.57-.21-1.17-.4-1.77-.57-.51-.15-1.02-.29-1.57-.4-.01-.01-.04-.01-.07-.01-.19-.06-.38-.1-.58-.13-.51-.11-1.02-.21-1.55-.29-.56-.08-1.1-.17-1.67-.22-.23-.03-.46-.06-.68-.07-.44-.04-.88-.08-1.34-.1-.03-.01-.06-.01-.1,0-.16-.03-.31-.03-.47-.03-2.96-.15-6.15,.01-9.57,.49-10.56,1.45-19.01,5.18-25.35,11.2-.8,.75-1.54,1.53-2.24,2.33-.33,.38-.65,.75-.95,1.14-.3,.36-.58,.75-.85,1.13-.19,.24-.36,.47-.51,.72-.37,.54-.73,1.09-1.04,1.63-.16,.24-.28,.47-.41,.72-.61,1.07-1.14,2.17-1.58,3.32-.1,.21-.19,.43-.26,.64-.21,.56-.4,1.11-.56,1.67-.1,.26-.17,.53-.24,.81-.1,.29-.17,.59-.24,.89-.1,.4-.2,.81-.27,1.21-.06,.26-.11,.52-.16,.78-.04,.29-.1,.57-.14,.86-.03,.19-.06,.38-.07,.56-.04,.28-.09,.56-.1,.84-.04,.28-.07,.56-.09,.85-.03,.33-.06,.67-.07,1-.01,.04-.01,.08-.01,.13-.01,.35-.03,.71-.04,1.07l-1.08-.57-15.15-8.07c.21-8.85,3.5-16.29,9.84-22.29,6.35-6.03,14.79-9.77,25.35-11.22,9.22-1.27,16.78-.33,22.68,2.8l16.02,8.54Z"/>
          </g>
          <g class="cls-67">
            <path class="cls-51" d="M150.72,281.64l-8.77,1.2-14.61,2.01c-.19,.01-.37,.04-.54,.06-.17,.03-.33,.04-.48,.04h-.06c-.34,.01-.67,.01-1-.03h-.17c-.14-.03-.3-.04-.43-.07h-.03c-.11-.01-.21-.03-.31-.06-.19-.03-.36-.07-.51-.13h-.01s-.1-.03-.16-.04h-.01c-.14-.06-.31-.11-.46-.15t-.03-.01s-.01-.01-.03-.01c-.23-.1-.44-.19-.65-.31-.6-.32-1.15-.74-1.67-1.25-.67-.68-1.2-1.45-1.58-2.35h0c-.6-1.35-.9-2.94-.9-4.78v-.53l16.17-2.22,4.68,2.49,11.55,6.14Z"/>
            <path class="cls-49" d="M107.99,304.04l-15.92-8.48c-3.77-1.99-6.75-4.95-8.94-8.82-2.45-4.32-3.67-9.57-3.66-15.73l.1-52.83,16.24-2.24-.13,63.71c0,6.16,1.21,11.41,3.67,15.73,.57,1,1.18,1.94,1.86,2.81,.14,.21,.3,.4,.47,.6,.23,.29,.47,.57,.74,.85,.09,.13,.2,.24,.33,.35,.13,.14,.24,.28,.38,.4,.13,.14,.26,.26,.4,.39,.17,.17,.34,.32,.51,.46,.23,.22,.47,.43,.71,.61,.19,.17,.38,.32,.58,.46,.2,.17,.4,.32,.61,.45,.3,.22,.63,.45,.95,.64,.2,.14,.4,.26,.61,.38,.14,.08,.3,.17,.46,.26Z"/>
            <path class="cls-46" d="M150.71,281.64v8.79s-.04,12.71-.04,12.71l-25.64,3.52c-5.82,.79-10.95,.21-15.37-1.78-.51-.24-1.01-.47-1.49-.75-.03-.01-.06-.01-.09-.04-.03-.01-.06-.03-.09-.04-.16-.1-.31-.18-.46-.26-.21-.11-.41-.24-.61-.38-.33-.2-.65-.42-.95-.64-.21-.13-.41-.28-.61-.45-.2-.14-.4-.29-.58-.46-.24-.18-.48-.39-.71-.61-.17-.14-.34-.29-.51-.46-.14-.13-.27-.25-.4-.39-.14-.13-.26-.26-.38-.4-.13-.11-.24-.22-.33-.35-.27-.28-.51-.56-.74-.85-.17-.2-.33-.39-.47-.6-.68-.88-1.3-1.81-1.86-2.81-2.46-4.32-3.67-9.57-3.67-15.73l.13-63.71-16.24,2.24-10.15,1.39,.04-21.5,49-6.74-.16,83.89v.53c0,1.84,.3,3.43,.9,4.77h0c.38,.92,.91,1.69,1.58,2.37,.51,.52,1.07,.93,1.67,1.25,.21,.11,.43,.22,.65,.31,.01,0,.01,.01,.03,.01s.01,0,.03,.01c.14,.06,.3,.11,.46,.14h.01c.06,.03,.11,.06,.16,.06h.01c.16,.06,.33,.1,.51,.13,.1,.03,.2,.04,.31,.06h.03c.13,.03,.28,.04,.43,.07h.17c.33,.04,.65,.04,1,.03h.06c.16,0,.31-.01,.48-.04,.17-.01,.36-.04,.54-.06l14.61-2.01,8.77-1.2Z"/>
            <polygon class="cls-48" points="118.47 191.33 69.47 198.07 69.42 219.57 53.21 210.93 53.25 189.43 102.25 182.69 118.47 191.33"/>
          </g>
        </g>
      </g>
    </g>
  </g>
</svg>