<?xml version="1.0" encoding="UTF-8"?>
<svg id="Layer_2" data-name="Layer 2" xmlns="http://www.w3.org/2000/svg" xmlns:xlink="http://www.w3.org/1999/xlink" viewBox="0 0 293.95 220.76">
  <defs>
    <style>
      .cls-1 {
        stroke: url(#linear-gradient);
      }

      .cls-1, .cls-2, .cls-3, .cls-4, .cls-5, .cls-6, .cls-7, .cls-8, .cls-9, .cls-10, .cls-11, .cls-12, .cls-13, .cls-14, .cls-15, .cls-16, .cls-17, .cls-18, .cls-19, .cls-20, .cls-21, .cls-22, .cls-23, .cls-24, .cls-25, .cls-26, .cls-27, .cls-28, .cls-29, .cls-30, .cls-31, .cls-32, .cls-33, .cls-34, .cls-35, .cls-36, .cls-37, .cls-38, .cls-39, .cls-40, .cls-41, .cls-42, .cls-43, .cls-44, .cls-45, .cls-46, .cls-47, .cls-48, .cls-49, .cls-50, .cls-51, .cls-52, .cls-53, .cls-54, .cls-55, .cls-56, .cls-57, .cls-58, .cls-59, .cls-60, .cls-61, .cls-62, .cls-63, .cls-64, .cls-65, .cls-66, .cls-67, .cls-68 {
        fill: #fff;
        stroke-miterlimit: 10;
        stroke-width: 1.5px;
      }

      .cls-2 {
        stroke: url(#linear-gradient-40);
      }

      .cls-3 {
        stroke: url(#linear-gradient-41);
      }

      .cls-4 {
        stroke: url(#linear-gradient-43);
      }

      .cls-5 {
        stroke: url(#linear-gradient-42);
      }

      .cls-6 {
        stroke: url(#linear-gradient-49);
      }

      .cls-7 {
        stroke: url(#linear-gradient-48);
      }

      .cls-8 {
        stroke: url(#linear-gradient-47);
      }

      .cls-9 {
        stroke: url(#linear-gradient-46);
      }

      .cls-10 {
        stroke: url(#linear-gradient-45);
      }

      .cls-11 {
        stroke: url(#linear-gradient-44);
      }

      .cls-12 {
        stroke: url(#linear-gradient-38);
      }

      .cls-13 {
        stroke: url(#linear-gradient-35);
      }

      .cls-14 {
        stroke: url(#linear-gradient-34);
      }

      .cls-15 {
        stroke: url(#linear-gradient-37);
      }

      .cls-16 {
        stroke: url(#linear-gradient-29);
      }

      .cls-17 {
        stroke: url(#linear-gradient-26);
      }

      .cls-18 {
        stroke: url(#linear-gradient-32);
      }

      .cls-19 {
        stroke: url(#linear-gradient-31);
      }

      .cls-20 {
        stroke: url(#linear-gradient-33);
      }

      .cls-21 {
        stroke: url(#linear-gradient-30);
      }

      .cls-22 {
        stroke: url(#linear-gradient-28);
      }

      .cls-23 {
        stroke: url(#linear-gradient-25);
      }

      .cls-24 {
        stroke: url(#linear-gradient-27);
      }

      .cls-25 {
        stroke: url(#linear-gradient-24);
      }

      .cls-26 {
        stroke: url(#linear-gradient-39);
      }

      .cls-27 {
        stroke: url(#linear-gradient-36);
      }

      .cls-28 {
        stroke: url(#linear-gradient-52);
      }

      .cls-29 {
        stroke: url(#linear-gradient-51);
      }

      .cls-30 {
        stroke: url(#linear-gradient-58);
      }

      .cls-31 {
        stroke: url(#linear-gradient-60);
      }

      .cls-32 {
        stroke: url(#linear-gradient-54);
      }

      .cls-33 {
        stroke: url(#linear-gradient-53);
      }

      .cls-34 {
        stroke: url(#linear-gradient-59);
      }

      .cls-35 {
        stroke: url(#linear-gradient-50);
      }

      .cls-36 {
        stroke: url(#linear-gradient-56);
      }

      .cls-37 {
        stroke: url(#linear-gradient-55);
      }

      .cls-38 {
        stroke: url(#linear-gradient-68);
      }

      .cls-39 {
        stroke: url(#linear-gradient-65);
      }

      .cls-40 {
        stroke: url(#linear-gradient-62);
      }

      .cls-41 {
        stroke: url(#linear-gradient-67);
      }

      .cls-42 {
        stroke: url(#linear-gradient-66);
      }

      .cls-43 {
        stroke: url(#linear-gradient-64);
      }

      .cls-44 {
        stroke: url(#linear-gradient-61);
      }

      .cls-45 {
        stroke: url(#linear-gradient-63);
      }

      .cls-46 {
        stroke: url(#linear-gradient-57);
      }

      .cls-47 {
        stroke: url(#linear-gradient-20);
      }

      .cls-48 {
        stroke: url(#linear-gradient-22);
      }

      .cls-49 {
        stroke: url(#linear-gradient-21);
      }

      .cls-50 {
        stroke: url(#linear-gradient-19);
      }

      .cls-51 {
        stroke: url(#linear-gradient-11);
      }

      .cls-52 {
        stroke: url(#linear-gradient-15);
      }

      .cls-53 {
        stroke: url(#linear-gradient-16);
      }

      .cls-54 {
        stroke: url(#linear-gradient-17);
      }

      .cls-55 {
        stroke: url(#linear-gradient-18);
      }

      .cls-56 {
        stroke: url(#linear-gradient-23);
      }

      .cls-57 {
        stroke: url(#linear-gradient-10);
      }

      .cls-58 {
        stroke: url(#linear-gradient-13);
      }

      .cls-59 {
        stroke: url(#linear-gradient-14);
      }

      .cls-60 {
        stroke: url(#linear-gradient-12);
      }

      .cls-69 {
        isolation: isolate;
      }

      .cls-61 {
        stroke: url(#linear-gradient-3);
      }

      .cls-62 {
        stroke: url(#linear-gradient-4);
      }

      .cls-63 {
        stroke: url(#linear-gradient-2);
      }

      .cls-64 {
        stroke: url(#linear-gradient-9);
      }

      .cls-65 {
        stroke: url(#linear-gradient-5);
      }

      .cls-66 {
        stroke: url(#linear-gradient-8);
      }

      .cls-67 {
        stroke: url(#linear-gradient-6);
      }

      .cls-68 {
        stroke: url(#linear-gradient-7);
      }
    </style>
    <linearGradient id="linear-gradient" x1="280.76" y1="83.67" x2="274.14" y2="77.05" gradientUnits="userSpaceOnUse">
      <stop offset="0" stop-color="#9e5ca5"/>
      <stop offset=".02" stop-color="#a86aac"/>
      <stop offset=".06" stop-color="#c18abe"/>
      <stop offset=".1" stop-color="#d09ec9"/>
      <stop offset=".13" stop-color="#d6a6cd"/>
    </linearGradient>
    <linearGradient id="linear-gradient-2" x1="267.78" y1="38.05" x2="264.91" y2="35.19" xlink:href="#linear-gradient"/>
    <linearGradient id="linear-gradient-3" x1="266.45" y1="69.21" x2="241.38" y2="44.13" xlink:href="#linear-gradient"/>
    <linearGradient id="linear-gradient-4" x1="294.35" y1="82.66" x2="245.78" y2="34.09" xlink:href="#linear-gradient"/>
    <linearGradient id="linear-gradient-5" x1="237.21" y1="51.35" x2="235.68" y2="49.82" xlink:href="#linear-gradient"/>
    <linearGradient id="linear-gradient-6" x1="245.23" y1="46.73" x2="242.84" y2="44.34" xlink:href="#linear-gradient"/>
    <linearGradient id="linear-gradient-7" x1="267.78" y1="38.05" x2="264.91" y2="35.19" xlink:href="#linear-gradient"/>
    <linearGradient id="linear-gradient-8" x1="266.03" y1="42.91" x2="242.69" y2="19.58" xlink:href="#linear-gradient"/>
    <linearGradient id="linear-gradient-9" x1="245.23" y1="46.73" x2="242.84" y2="44.34" xlink:href="#linear-gradient"/>
    <linearGradient id="linear-gradient-10" x1="232.17" y1="42.36" x2="217.04" y2="27.23" xlink:href="#linear-gradient"/>
    <linearGradient id="linear-gradient-11" x1="209.32" y1="87.82" x2="182.75" y2="61.24" xlink:href="#linear-gradient"/>
    <linearGradient id="linear-gradient-12" x1="214.89" y1="31.69" x2="193.23" y2="10.02" xlink:href="#linear-gradient"/>
    <linearGradient id="linear-gradient-13" x1="188.31" y1="55.62" x2="169.8" y2="37.11" xlink:href="#linear-gradient"/>
    <linearGradient id="linear-gradient-14" x1="238.52" y1="71.68" x2="193.84" y2="27" xlink:href="#linear-gradient"/>
    <linearGradient id="linear-gradient-15" x1="237.21" y1="51.35" x2="235.68" y2="49.82" xlink:href="#linear-gradient"/>
    <linearGradient id="linear-gradient-16" x1="169.82" y1="92.51" x2="151.41" y2="74.09" xlink:href="#linear-gradient"/>
    <linearGradient id="linear-gradient-17" x1="125.4" y1="93.76" x2="117.95" y2="86.3" xlink:href="#linear-gradient"/>
    <linearGradient id="linear-gradient-18" x1="159.07" y1="79.71" x2="121.51" y2="42.14" xlink:href="#linear-gradient"/>
    <linearGradient id="linear-gradient-19" x1="174.48" y1="92.03" x2="131.85" y2="49.4" xlink:href="#linear-gradient"/>
    <linearGradient id="linear-gradient-20" x1="117.88" y1="96.91" x2="103.39" y2="82.42" xlink:href="#linear-gradient"/>
    <linearGradient id="linear-gradient-21" x1="124.68" y1="92.67" x2="118.13" y2="86.12" xlink:href="#linear-gradient"/>
    <linearGradient id="linear-gradient-22" x1="105.83" y1="94.49" x2="64.49" y2="53.15" xlink:href="#linear-gradient"/>
    <linearGradient id="linear-gradient-23" x1="131.06" y1="100.32" x2="63.43" y2="32.69" xlink:href="#linear-gradient"/>
    <linearGradient id="linear-gradient-24" x1="125.51" y1="93.65" x2="121.27" y2="89.42" xlink:href="#linear-gradient"/>
    <linearGradient id="linear-gradient-25" x1="70.16" y1="44.77" x2="51.66" y2="26.26" xlink:href="#linear-gradient"/>
    <linearGradient id="linear-gradient-26" x1="91.33" y1="38.56" x2="64.95" y2="12.19" xlink:href="#linear-gradient"/>
    <linearGradient id="linear-gradient-27" x1="62.5" y1="118.99" x2="8.33" y2="64.81" xlink:href="#linear-gradient"/>
    <linearGradient id="linear-gradient-28" x1="40.85" y1="97.8" x2="18.27" y2="75.22" xlink:href="#linear-gradient"/>
    <linearGradient id="linear-gradient-29" x1="17.29" y1="120.2" x2="-1.21" y2="101.69" xlink:href="#linear-gradient"/>
    <linearGradient id="linear-gradient-30" x1="19.5" y1="72.45" x2=".99" y2="53.95" xlink:href="#linear-gradient"/>
    <linearGradient id="linear-gradient-31" x1="39.67" y1="66.06" x2="13.89" y2="40.28" xlink:href="#linear-gradient"/>
    <linearGradient id="linear-gradient-32" x1="33.11" y1="45.96" x2="23.23" y2="36.07" xlink:href="#linear-gradient"/>
    <linearGradient id="linear-gradient-33" x1="39.37" y1="38.13" x2="23.38" y2="22.14" xlink:href="#linear-gradient"/>
    <linearGradient id="linear-gradient-34" x1="47.12" y1="43.07" x2="33.58" y2="29.53" xlink:href="#linear-gradient"/>
    <linearGradient id="linear-gradient-35" x1="256.14" y1="185.43" x2="241.82" y2="171.12" xlink:href="#linear-gradient"/>
    <linearGradient id="linear-gradient-36" x1="239.88" y1="182.12" x2="236.4" y2="178.64" xlink:href="#linear-gradient"/>
    <linearGradient id="linear-gradient-37" x1="262.65" y1="166.34" x2="243.37" y2="147.06" xlink:href="#linear-gradient"/>
    <linearGradient id="linear-gradient-38" x1="259.43" y1="151.69" x2="250.81" y2="143.08" xlink:href="#linear-gradient"/>
    <linearGradient id="linear-gradient-39" x1="230.6" y1="196.11" x2="214.53" y2="180.04" xlink:href="#linear-gradient"/>
    <linearGradient id="linear-gradient-40" x1="235.14" y1="186.51" x2="219.91" y2="171.28" xlink:href="#linear-gradient"/>
    <linearGradient id="linear-gradient-41" x1="248.47" y1="153.75" x2="223.38" y2="128.66" xlink:href="#linear-gradient"/>
    <linearGradient id="linear-gradient-42" x1="231.67" y1="169.26" x2="230.97" y2="168.56" xlink:href="#linear-gradient"/>
    <linearGradient id="linear-gradient-43" x1="272.25" y1="188.58" x2="226.65" y2="142.99" xlink:href="#linear-gradient"/>
    <linearGradient id="linear-gradient-44" x1="231.67" y1="169.26" x2="230.97" y2="168.56" xlink:href="#linear-gradient"/>
    <linearGradient id="linear-gradient-45" x1="239.88" y1="182.12" x2="236.4" y2="178.64" xlink:href="#linear-gradient"/>
    <linearGradient id="linear-gradient-46" x1="187.08" y1="190.89" x2="186.43" y2="190.23" xlink:href="#linear-gradient"/>
    <linearGradient id="linear-gradient-47" x1="198.48" y1="151.1" x2="181.92" y2="134.54" xlink:href="#linear-gradient"/>
    <linearGradient id="linear-gradient-48" x1="187.08" y1="190.89" x2="186.43" y2="190.23" xlink:href="#linear-gradient"/>
    <linearGradient id="linear-gradient-49" x1="211.34" y1="198.78" x2="151.68" y2="139.12" xlink:href="#linear-gradient"/>
    <linearGradient id="linear-gradient-50" x1="203.19" y1="184.53" x2="181.78" y2="163.12" xlink:href="#linear-gradient"/>
    <linearGradient id="linear-gradient-51" x1="178.6" y1="130.04" x2="160.19" y2="111.63" xlink:href="#linear-gradient"/>
    <linearGradient id="linear-gradient-52" x1="188.02" y1="189.48" x2="135.57" y2="137.03" xlink:href="#linear-gradient"/>
    <linearGradient id="linear-gradient-53" x1="138.46" y1="202.05" x2="133.9" y2="197.49" xlink:href="#linear-gradient"/>
    <linearGradient id="linear-gradient-54" x1="146.89" y1="210.78" x2="140.26" y2="204.15" xlink:href="#linear-gradient"/>
    <linearGradient id="linear-gradient-55" x1="127.27" y1="201.7" x2="126.5" y2="200.93" xlink:href="#linear-gradient"/>
    <linearGradient id="linear-gradient-56" x1="138.46" y1="202.05" x2="133.9" y2="197.49" xlink:href="#linear-gradient"/>
    <linearGradient id="linear-gradient-57" x1="133.78" y1="164.93" x2="131.04" y2="162.19" xlink:href="#linear-gradient"/>
    <linearGradient id="linear-gradient-58" x1="132.8" y1="195.95" x2="107.79" y2="170.94" xlink:href="#linear-gradient"/>
    <linearGradient id="linear-gradient-59" x1="115.28" y1="213.98" x2="114.49" y2="213.19" xlink:href="#linear-gradient"/>
    <linearGradient id="linear-gradient-60" x1="111.37" y1="173.83" x2="108.99" y2="171.45" xlink:href="#linear-gradient"/>
    <linearGradient id="linear-gradient-61" x1="137.91" y1="202.6" x2="114.27" y2="178.96" xlink:href="#linear-gradient"/>
    <linearGradient id="linear-gradient-62" x1="160.49" y1="209.76" x2="111.91" y2="161.19" xlink:href="#linear-gradient"/>
    <linearGradient id="linear-gradient-63" x1="133.86" y1="168.1" x2="110.63" y2="144.87" xlink:href="#linear-gradient"/>
    <linearGradient id="linear-gradient-64" x1="100.99" y1="208.46" x2="85.21" y2="192.68" xlink:href="#linear-gradient"/>
    <linearGradient id="linear-gradient-65" x1="87.31" y1="205.73" x2="45.66" y2="164.08" xlink:href="#linear-gradient"/>
    <linearGradient id="linear-gradient-66" x1="112.22" y1="211.25" x2="44.59" y2="143.62" xlink:href="#linear-gradient"/>
    <linearGradient id="linear-gradient-67" x1="51.33" y1="155.7" x2="32.82" y2="137.19" xlink:href="#linear-gradient"/>
    <linearGradient id="linear-gradient-68" x1="72.48" y1="149.49" x2="46.12" y2="123.13" xlink:href="#linear-gradient"/>
  </defs>
  <g id="Layer_1-2" data-name="Layer 1">
    <g>
      <g>
        <g class="cls-69">
          <path class="cls-1" d="M277.79,74.93l-.02,9.72-4.43-2.41c1.97-2.03,3.34-4.45,4.13-7.26l.32-.05Z"/>
          <path class="cls-63" d="M265.98,36.27s-.05,.01-.07,.02v-.06l.07,.04Z"/>
          <g>
            <path class="cls-61" d="M277.31,42.43v4.58s-11.13,1.56-11.13,1.56c-7.9,1.11-13.98,3.66-18.22,7.64-4.25,3.99-6.37,9.19-6.38,15.58-.01,5.87,1.69,10.28,5.11,13.23,.67,.58,1.38,1.08,2.14,1.51l-11.18-6.08c-.84-.46-1.63-1-2.36-1.63-3.42-2.95-5.12-7.36-5.11-13.23,.01-6.13,1.97-11.16,5.87-15.07l.69-.1v-.57c1.84-1.7,4.04-3.13,6.57-4.3l.75,.41,13.78-1.93,1.05-.15c0-.75,.11-1.46,.33-2.13,.38-1.17,1.1-2.22,2.16-3.14,1.2-1.05,2.71-1.83,4.53-2.32,.02-.01,.04-.02,.07-.02,.67-.19,1.38-.33,2.13-.44,2.57-.35,4.63-.1,6.19,.75,.08,.04,.16,.09,.23,.13,.13,.07,.24,.15,.36,.23,1.62,1.14,2.43,2.98,2.42,5.49Z"/>
            <path class="cls-62" d="M286.66,25.17c-.62-.46-1.27-.87-1.95-1.24-.24-.13-.49-.26-.74-.37-.21-.11-.42-.21-.64-.3-.02-.01-.04-.02-.06-.03-.22-.1-.45-.19-.69-.28-.09-.04-.18-.07-.27-.1-.03-.01-.06-.02-.1-.03-.23-.09-.46-.17-.71-.24-.01,0-.02,0-.03,0-.14-.06-.28-.09-.42-.13-.26-.08-.53-.15-.8-.21-.03-.01-.05-.01-.08-.02-.16-.05-.33-.09-.5-.12-.35-.08-.71-.15-1.07-.21-.2-.03-.4-.06-.61-.08-.02-.01-.05-.01-.07-.01,0,0-.03-.01-.04-.01-.1-.02-.19-.03-.29-.04h-.06s-.05-.01-.07-.01c-.16-.03-.33-.05-.49-.06h-.04s-.05-.01-.07-.01c-.38-.04-.77-.07-1.16-.08,0,0-.01,0-.02,0h-.12c-.12-.01-.24-.02-.36-.02s-.24,0-.36-.01c-.24-.01-.48-.01-.73-.01-.14,0-.29,0-.44,.01h-.31c-.21,0-.44,.01-.66,.02h-.12c-.36,.02-.72,.04-1.08,.07-.45,.03-.9,.07-1.35,.12-.46,.05-.92,.11-1.38,.17-7.41,1.04-13.35,3.72-17.8,8.04-.63,.61-1.22,1.25-1.76,1.9-.23,.27-.45,.55-.66,.83-.24,.31-.47,.63-.69,.95h0c-.15,.23-.3,.45-.43,.67-.18,.29-.35,.57-.51,.86-.04,.06-.08,.13-.11,.19-.14,.24-.27,.48-.39,.73-.02,.04-.03,.07-.05,.11-.01,.02-.02,.04-.03,.06-.13,.26-.26,.53-.38,.8-.11,.26-.22,.52-.32,.78h0c-.07,.16-.13,.31-.18,.47-.06,.15-.11,.31-.16,.47-.02,.04-.03,.08-.04,.12-.08,.21-.14,.42-.2,.63-.07,.19-.12,.38-.17,.58-.04,.12-.07,.25-.1,.37-.08,.3-.15,.6-.21,.91-.06,.3-.12,.59-.17,.89-.03,.17-.06,.34-.08,.51-.01,.04-.01,.08-.01,.12-.05,.29-.08,.58-.11,.88-.03,.19-.05,.39-.06,.58-.03,.25-.04,.5-.05,.75,0,.03,0,.05,0,.08-.01,.25-.02,.5-.03,.76l13.78-1.93,1.05-.15c0-.75,.11-1.46,.33-2.13,.38-1.17,1.1-2.22,2.16-3.14,1.2-1.05,2.71-1.83,4.53-2.32v-.06l.07,.04c.67-.19,1.38-.33,2.13-.44,2.57-.35,4.63-.1,6.19,.75,.08,.04,.16,.09,.23,.13,.13,.07,.24,.15,.36,.23,1.62,1.14,2.43,2.98,2.42,5.49v4.58s-11.13,1.56-11.13,1.56c-7.9,1.11-13.98,3.66-18.22,7.64-4.25,3.99-6.37,9.19-6.38,15.58-.01,5.87,1.69,10.28,5.11,13.23,.67,.58,1.38,1.08,2.14,1.51,3.13,1.78,7.06,2.34,11.78,1.67,4.44-.62,8.11-2.09,11.02-4.4,.62-.49,1.19-1.01,1.71-1.56,1.97-2.03,3.34-4.45,4.13-7.26l.32-.05-.02,9.72,15.35-2.16,.08-42.29c.02-6.79-2.17-11.8-6.54-15.03Zm-9.39,38.63c0,2.9-1.01,5.37-3.02,7.4-.41,.41-.83,.78-1.28,1.11-1.79,1.39-3.92,2.26-6.41,2.6-.06,.01-.12,.02-.18,.02-.64,.09-1.23,.13-1.8,.13-.23,0-.45-.01-.66-.02-.36-.02-.7-.06-1.03-.12-.14-.02-.27-.04-.39-.07-.4-.09-.77-.2-1.12-.34-.18-.07-.35-.15-.51-.23-.35-.17-.67-.37-.98-.6-1.57-1.18-2.38-3-2.41-5.47,0-.08,0-.17,0-.25,0-2.51,.8-4.59,2.39-6.22,1.46-1.5,3.44-2.48,5.94-2.93,.23-.05,.46-.09,.69-.12l1.1-.15,9.69-1.37v6.63Z"/>
          </g>
          <g>
            <path class="cls-65" d="M236.74,49.85v.57l-.69,.1c.17-.18,.34-.35,.51-.51,.06-.05,.12-.11,.18-.16Z"/>
            <path class="cls-67" d="M244.09,45.2c-.01,.25-.02,.5-.03,.76l-.75-.41c.25-.12,.51-.24,.78-.35Z"/>
          </g>
          <path class="cls-68" d="M265.91,36.23v.06s.04-.02,.07-.02l-.07-.04Z"/>
          <g>
            <path class="cls-66" d="M284.71,23.93c-.24-.13-.49-.26-.74-.37-.21-.11-.42-.21-.64-.3-.02-.01-.04-.02-.06-.03-.22-.1-.45-.19-.69-.28-.09-.04-.18-.07-.27-.1-.03-.01-.06-.02-.1-.03-.23-.09-.46-.17-.71-.24-.01,0-.02,0-.03,0-.14-.06-.28-.09-.42-.13-.26-.08-.53-.16-.8-.21-.03-.01-.05-.01-.08-.02-.16-.05-.33-.09-.5-.12-.35-.08-.71-.15-1.07-.21-.2-.03-.4-.06-.61-.08-.02-.01-.05-.01-.07-.01,0,0-.03-.01-.04-.01-.1-.02-.18-.04-.29-.04h-.06s-.05-.01-.07-.01c-.16-.03-.33-.05-.49-.06h-.04s-.05-.01-.07-.01c-.38-.04-.77-.07-1.16-.08,0,0-.01,0-.02,0-.03-.01-.07-.01-.11,0h-.01c-.12-.01-.24-.02-.36-.02s-.24,0-.36-.01c-.24-.01-.48-.01-.73-.01-.14,0-.29,0-.44,.01h-.31c-.21,0-.44,.01-.66,.02h-.12c-.36,.01-.72,.03-1.08,.07-.45,.03-.9,.07-1.35,.12-.46,.05-.92,.11-1.38,.17-7.41,1.04-13.35,3.72-17.8,8.04-.63,.61-1.22,1.25-1.76,1.9-.23,.27-.45,.55-.66,.83-.24,.31-.47,.63-.69,.95h0c-.15,.23-.3,.45-.43,.67-.18,.29-.35,.57-.51,.86-.04,.06-.08,.13-.11,.19-.14,.24-.27,.48-.39,.73-.02,.04-.03,.07-.05,.11-.01,.02-.02,.04-.03,.06-.13,.26-.26,.53-.38,.8-.11,.26-.22,.52-.32,.78h0c-.07,.16-.13,.31-.18,.47-.06,.15-.11,.31-.16,.47-.02,.04-.03,.08-.04,.12-.08,.21-.14,.42-.2,.63-.07,.19-.12,.38-.17,.58-.04,.12-.07,.25-.1,.37-.08,.3-.15,.6-.21,.91-.07,.29-.12,.59-.17,.89-.03,.17-.06,.34-.08,.51-.01,.04-.01,.08-.01,.12-.05,.29-.08,.58-.11,.88-.03,.19-.05,.39-.06,.58-.03,.25-.04,.5-.05,.75,0,.03,0,.05,0,.08-.27,.11-.53,.23-.78,.35-2.53,1.17-4.73,2.6-6.57,4.3l.02-7.87v-7s-3.09-1.69-3.09-1.69c1.09-3.59,3.06-6.77,5.9-9.53,4.46-4.32,10.4-7,17.81-8.04,6.49-.91,11.8-.24,15.94,2.01l11.39,6.2Z"/>
            <path class="cls-64" d="M244.09,45.2c-.01,.25-.02,.5-.03,.76l-.75-.41c.25-.12,.51-.24,.78-.35Z"/>
          </g>
        </g>
        <g class="cls-69">
          <polygon class="cls-57" points="236.77 34.98 233.13 35.49 215.49 37.97 215.5 30.17 225.37 28.78 233.67 33.29 236.77 34.98"/>
          <polygon class="cls-51" points="199.57 55.64 199.49 95.65 188.09 89.45 188.15 57.24 199.57 55.64"/>
          <path class="cls-60" d="M236.82,6.98l-17.04,2.39c-6.01,.85-10.87,3.3-14.58,7.36-3.71,4.07-5.58,9.04-5.59,14.91l-.02,8.57-15.46,2.17-11.39-6.2,15.46-2.17v-8.57c.02-5.87,1.89-10.84,5.61-14.91,3.7-4.06,8.56-6.51,14.57-7.36l17.05-2.39,11.39,6.2Z"/>
          <path class="cls-58" d="M184.13,42.38l-.02,15.43-5.92-3.22c-.47-2.85-1.37-5.4-2.7-7.62-.79-1.33-1.71-2.53-2.76-3.58v-7.21s11.4,6.2,11.4,6.2Z"/>
          <g>
            <path class="cls-59" d="M215.5,30.17v7.8s17.63-2.48,17.63-2.48l3.64-.51v7s-.03,7.87-.03,7.87c-.06,.05-.12,.11-.18,.16-.17,.16-.34,.33-.51,.51l-20.59,2.89-.08,40.01-15.89,2.23,.08-40.01-11.42,1.6-4.04,.57,.02-15.43,15.46-2.17,.02-8.57c.01-5.87,1.88-10.84,5.59-14.91,3.71-4.06,8.57-6.51,14.58-7.36l17.04-2.39-.03,14.86-16.51,2.32c-1.42,.2-2.57,.84-3.45,1.91-.88,1.08-1.33,2.38-1.33,3.91v.19Z"/>
            <path class="cls-52" d="M236.74,49.85v.57l-.69,.1c.17-.18,.34-.35,.51-.51,.06-.05,.12-.11,.18-.16Z"/>
          </g>
        </g>
        <g class="cls-69">
          <path class="cls-53" d="M178.02,81.53l-15.56,2.19c-1,3.56-4,5.7-9.01,6.41-.97,.14-1.88,.19-2.71,.15-.1,0-.2-.01-.29-.01-.03,0-.07,0-.1,0-.24-.02-.48-.04-.7-.08-.13-.01-.25-.03-.36-.06-.31-.05-.61-.12-.89-.2-.14-.04-.27-.08-.4-.13-.12-.04-.25-.09-.37-.15-.17-.06-.32-.13-.47-.21-.12-.06-.25-.13-.37-.2-1.79-1.05-2.97-2.88-3.53-5.51,4.29-.87,6.88-2.94,7.8-6.2l15.57-2.19,11.39,6.2Z"/>
          <path class="cls-54" d="M123.69,90.88v2.3c-.77-.6-1.49-1.27-2.14-2-.69-.76-1.31-1.59-1.86-2.48l4,2.18Z"/>
          <path class="cls-55" d="M168.57,40.28c-.16-.09-.32-.17-.48-.24-.2-.11-.41-.21-.61-.3-.25-.12-.5-.23-.76-.34-3.78-1.56-8.24-1.98-13.39-1.26-5.15,.73-9.66,2.41-13.51,5.04-3.85,2.64-6.82,5.99-8.91,10.05-2.09,4.07-3.14,8.62-3.15,13.64l-.03,14.87c0,5.03,1.02,9.28,3.1,12.76,.18,.31,.38,.61,.57,.9,.04,.06,.08,.12,.12,.17,.2,.3,.42,.59,.64,.87,.63,.81,1.33,1.56,2.09,2.24,.12,.11,.24,.22,.36,.32,.55,.47,1.14,.92,1.76,1.32,.3,.2,.6,.38,.91,.55,.03,.03,.06,.05,.09,.06l-11.1-6.04c-.92-.5-1.78-1.07-2.58-1.71v-2.3l-4-2.18c-.1-.13-.18-.27-.26-.4-2.07-3.48-3.11-7.73-3.1-12.76l.03-14.87c.01-5.02,1.06-9.57,3.15-13.64,2.09-4.06,5.06-7.41,8.92-10.05,3.84-2.63,8.35-4.31,13.5-5.04,5.16-.72,9.62-.3,13.39,1.26,.65,.27,1.26,.56,1.86,.88l11.39,6.2Z"/>
          <path class="cls-50" d="M178.57,71.17l.02-11.44c0-1.81-.13-3.53-.4-5.14-.47-2.85-1.37-5.4-2.7-7.62-.79-1.33-1.71-2.53-2.76-3.58-1.34-1.35-2.89-2.47-4.64-3.35-.2-.11-.41-.21-.61-.3-.25-.12-.5-.23-.76-.34-3.78-1.56-8.24-1.98-13.39-1.26-5.15,.73-9.66,2.41-13.51,5.04-3.85,2.64-6.82,5.99-8.91,10.05-2.09,4.07-3.14,8.62-3.15,13.64l-.03,14.87c0,5.03,1.02,9.28,3.1,12.76,.18,.31,.38,.61,.57,.9,.04,.06,.08,.12,.12,.17,.21,.3,.42,.59,.64,.87,.63,.81,1.33,1.56,2.09,2.24,.12,.11,.24,.22,.36,.32,.55,.47,1.14,.92,1.76,1.32,.3,.19,.6,.38,.91,.55,.03,.03,.06,.05,.09,.06,.74,.42,1.52,.8,2.34,1.13,3.84,1.55,8.34,1.96,13.49,1.24,6.29-.88,11.68-3.32,16.17-7.3,4.49-3.98,7.38-8.81,8.65-14.47l-15.56,2.19c-1,3.56-4,5.7-9.01,6.41-.97,.14-1.88,.19-2.71,.15-.1,0-.2-.01-.29-.01-.03,0-.07,0-.1,0-.24-.02-.48-.04-.7-.08-.13-.01-.25-.03-.36-.06-.31-.05-.61-.12-.89-.2-.14-.04-.27-.08-.4-.13-.12-.04-.25-.09-.37-.15-.17-.06-.32-.13-.47-.21-.12-.06-.25-.13-.37-.2-1.79-1.05-2.97-2.88-3.53-5.51-.26-1.2-.38-2.57-.38-4.11v-3.43l35.69-5.01Zm-35.66-6.43c0-2.41,.34-4.53,1.01-6.36h0c.4-1.12,.93-2.13,1.59-3.03,1.45-1.99,3.52-3.32,6.19-3.97,.51-.14,1.04-.24,1.6-.32,2.42-.34,4.41-.11,5.97,.69,.36,.19,.7,.41,1.02,.66,.1,.08,.2,.16,.3,.26,.05,.04,.1,.08,.15,.13,.05,.04,.09,.09,.14,.14,.19,.2,.38,.41,.55,.64,.01,.01,.01,.02,.02,.03,.08,.1,.15,.2,.22,.31,.08,.12,.16,.24,.23,.36,.16,.27,.31,.55,.44,.86,.05,.12,.1,.23,.15,.36,.01,.01,.02,.03,.02,.05,.06,.14,.11,.29,.16,.44,.07,.19,.13,.39,.19,.59,.07,.26,.14,.54,.2,.83,.05,.22,.09,.45,.13,.68,.02,.14,.05,.28,.06,.43,.03,.18,.05,.35,.07,.54,.03,.28,.06,.56,.08,.85,.01,.24,.03,.49,.03,.74,.02,.32,.02,.65,.02,.98v1.71l-20.55,3.12v-1.72Z"/>
        </g>
        <g class="cls-69">
          <g>
            <path class="cls-47" d="M121.55,91.18l-14.28,2c-.51,.07-1,.09-1.45,.05-.04,.01-.08,0-.12,0-.11-.01-.22-.02-.32-.05-.17-.02-.33-.05-.48-.09-.16-.04-.32-.09-.47-.15-.02,0-.04-.01-.06-.02-.18-.07-.36-.15-.53-.24-.42-.23-.81-.53-1.17-.91-.47-.48-.84-1.05-1.11-1.69-.42-.96-.63-2.1-.63-3.43v-.37l11.37-1.6,7.39,4.02c.55,.89,1.17,1.72,1.86,2.48Z"/>
            <path class="cls-49" d="M123.69,90.88l-2.14,.3c-.69-.76-1.31-1.59-1.86-2.48l4,2.18Z"/>
          </g>
          <path class="cls-48" d="M93.28,106.73l-10.79-5.86c-2.64-1.43-4.73-3.54-6.27-6.32-1.73-3.11-2.59-6.88-2.58-11.29l.07-37.93,11.41-1.6-.08,45.73c0,4.41,.85,8.18,2.57,11.29,.25,.45,.52,.89,.8,1.3,.18,.28,.37,.54,.57,.8,.09,.12,.18,.24,.3,.36,.12,.17,.26,.34,.41,.5,.11,.14,.24,.28,.38,.42,.14,.16,.3,.32,.46,.47,.15,.16,.31,.3,.47,.43,.12,.12,.23,.22,.35,.3,.16,.15,.32,.28,.49,.4,.16,.14,.32,.26,.49,.36,.17,.13,.34,.25,.52,.36,.14,.1,.29,.19,.43,.28Z"/>
          <g>
            <path class="cls-56" d="M123.69,93.18l-.03,13.13-18,2.53c-4.1,.58-7.7,.15-10.8-1.28-.37-.17-.73-.35-1.07-.55-.02,0-.04-.01-.06-.03-.15-.08-.3-.17-.45-.25-.14-.09-.29-.18-.43-.28-.18-.11-.35-.23-.52-.36-.17-.11-.33-.23-.49-.36-.17-.12-.33-.25-.49-.4-.12-.08-.23-.18-.35-.3-.16-.13-.32-.27-.47-.43-.16-.15-.32-.31-.46-.47-.14-.14-.27-.28-.38-.42-.15-.16-.29-.33-.41-.5-.12-.12-.21-.24-.3-.36-.2-.26-.39-.53-.57-.8-.28-.41-.55-.85-.8-1.3-1.72-3.11-2.58-6.88-2.57-11.29l.08-45.73-11.41,1.6-7.12,1,.03-15.43,34.43-4.84-.12,60.22v.37c0,1.33,.21,2.47,.63,3.43,.27,.64,.64,1.21,1.11,1.69,.36,.38,.75,.68,1.17,.91,.17,.09,.35,.17,.53,.24,.02,.01,.04,.02,.06,.02,.15,.06,.31,.11,.47,.15,.15,.04,.31,.07,.48,.09,.1,.03,.21,.04,.32,.05,.04,0,.08,.01,.12,0,.45,.04,.94,.02,1.45-.05l14.28-2c.65,.73,1.37,1.4,2.14,2Z"/>
            <path class="cls-25" d="M123.69,90.88v2.3c-.77-.6-1.49-1.27-2.14-2l2.14-.3Z"/>
          </g>
          <polygon class="cls-23" points="66.62 30.9 66.59 46.33 55.19 40.13 55.22 24.7 66.62 30.9"/>
          <polygon class="cls-17" points="101.05 26.06 66.62 30.9 55.22 24.7 89.65 19.86 101.05 26.06"/>
        </g>
        <g class="cls-69">
          <polygon class="cls-24" points="65.65 99.03 65.62 114.47 13.72 121.76 13.75 106.33 2.35 100.13 21.63 97.42 33.02 103.62 33.08 71.61 21.68 73.21 15.92 74.02 15.95 58.59 49 53.95 48.93 93.58 54.25 92.83 65.65 99.03"/>
          <polygon class="cls-22" points="33.08 71.61 33.02 103.62 21.63 97.42 21.68 73.21 33.08 71.61"/>
          <polygon class="cls-16" points="13.75 106.33 13.72 121.76 2.32 115.56 2.35 100.13 13.75 106.33"/>
          <polygon class="cls-21" points="15.95 58.59 15.92 74.02 4.53 67.82 4.56 52.39 15.95 58.59"/>
          <polygon class="cls-19" points="49 53.95 15.95 58.59 4.56 52.39 37.61 47.75 49 53.95"/>
        </g>
        <g class="cls-69">
          <path class="cls-18" d="M34.35,44.42l-11.4-6.2c-.33-.18-.65-.39-.95-.62l11.4,6.2c.3,.23,.62,.44,.95,.62Z"/>
          <path class="cls-20" d="M34.95,21.98l11.4,6.2c-1.59-.87-3.58-1.13-5.98-.79-2.89,.41-5.21,1.53-6.94,3.37-1.73,1.84-2.6,4.14-2.61,6.88s.86,4.8,2.58,6.15l-11.4-6.2c-1.73-1.36-2.59-3.41-2.58-6.15s.87-5.04,2.61-6.88c1.73-1.84,4.05-2.96,6.94-3.37,2.4-.34,4.39-.07,5.98,.79Z"/>
          <path class="cls-14" d="M33.4,43.79c-1.73-1.36-2.59-3.41-2.58-6.15s.87-5.04,2.61-6.88c1.73-1.84,4.05-2.96,6.94-3.37s5.21,.06,6.93,1.42c1.73,1.36,2.59,3.41,2.58,6.15s-.87,5.04-2.61,6.88c-1.73,1.84-4.04,2.96-6.94,3.37s-5.21-.06-6.93-1.42Z"/>
        </g>
      </g>
      <g>
        <g class="cls-69">
          <path class="cls-13" d="M260.44,177.27v.04c-.01,4.12-2.97,6.59-8.91,7.42l-4.65,.66c-.41,.05-.8,.1-1.18,.13-.62,.05-1.19,.05-1.72,.02-.13,0-.25-.01-.37-.03-.15,0-.3-.02-.44-.04h-.01c-.14-.02-.28-.05-.42-.08h-.02c-.07-.01-.14-.02-.2-.04-.03-.01-.06-.01-.09-.02-.13-.04-.26-.07-.39-.11-.01,0-.02,0-.03-.01-.17-.05-.34-.11-.5-.18-.08-.03-.16-.07-.23-.1-.08-.04-.16-.07-.23-.11-.01,0-.02,0-.03-.02-1.33-.74-2.08-2.01-2.25-3.82-.03-.27-.04-.55-.04-.85l-2.04-1.11,3.44-.49c5.69-.79,8.65-3.09,8.89-6.9h3.18c2.4,.02,4.28,.39,5.63,1.12,.18,.09,.34,.19,.5,.3,.05,.03,.09,.06,.13,.09,.07,.05,.14,.1,.21,.16,.07,.05,.13,.1,.19,.16,.15,.13,.29,.27,.42,.42,.26,.29,.47,.61,.63,.95,.02,.02,.03,.04,.03,.05,.08,.17,.15,.33,.21,.51,.03,.09,.06,.19,.09,.29,.02,.1,.05,.2,.07,.3,.04,.18,.07,.36,.09,.54,0,.05,.01,.11,.01,.16,.02,.19,.03,.39,.03,.59Z"/>
          <path class="cls-27" d="M238.77,180.98l-1.25-.68,1.21-.17c0,.3,.01,.58,.04,.85Z"/>
          <path class="cls-15" d="M268.18,160.51c-.08-.05-.16-.09-.24-.12-.25-.13-.51-.25-.78-.37-.57-.25-1.17-.48-1.8-.68-.22-.08-.45-.14-.68-.21-.87-.25-1.79-.46-2.76-.62-.25-.05-.5-.09-.75-.12-.29-.05-.57-.08-.86-.12-.34-.04-.68-.07-1.04-.1-.37-.03-.76-.06-1.15-.08-.4-.03-.8-.04-1.2-.05-.4-.01-.8-.02-1.21-.02h-.32l-8.57-.05c-.29,0-.56-.01-.83-.03-.25,0-.5-.03-.73-.07-.18-.01-.34-.03-.51-.06-.15-.02-.3-.05-.44-.08-.59-.12-1.12-.28-1.59-.49-.12-.05-.23-.1-.34-.16-.09-.04-.17-.09-.26-.14-1.02-.6-1.68-1.47-1.97-2.6-.14-.48-.2-1.01-.2-1.58,0-.33,.02-.65,.07-.96l3.98,.02c5.41-.03,9.75,.84,13.01,2.61l11.17,6.08Z"/>
          <path class="cls-12" d="M259.01,150.07v.02l-8.03-4.37,.52-.07c2.33-.33,4.12-.18,5.37,.43,.02,0,.03,.01,.05,.02h.01c.16,.1,.31,.19,.45,.29,.07,.04,.14,.09,.2,.15,.08,.06,.16,.13,.23,.2,.05,.04,.09,.08,.13,.13,.11,.11,.21,.23,.29,.35,.1,.13,.19,.27,.26,.43,.02,.03,.04,.06,.04,.09,0,.01,.01,.01,.01,.02,.07,.13,.12,.26,.17,.39,0,.03,.02,.06,.03,.09,.04,.1,.07,.21,.09,.32,0,.02,0,.03,0,.05,.03,.08,.05,.17,.06,.26,.03,.15,.06,.31,.07,.48,.01,.02,.01,.05,.01,.08,.02,.21,.03,.42,.03,.64Z"/>
          <path class="cls-26" d="M230.36,196.04l-11-5.97c-1.23-.67-2.33-1.46-3.29-2.37,.67-2.58,1.06-5.38,1.15-8.4l5.62,3.06c0,3.89,1,7.14,3,9.75,.22,.29,.46,.58,.7,.85,.09,.09,.17,.18,.26,.27,.2,.23,.42,.45,.65,.66,.04,.04,.08,.08,.12,.11,.28,.26,.57,.51,.87,.74,.32,.26,.66,.51,1.01,.74,.29,.2,.6,.39,.91,.56Z"/>
          <path class="cls-2" d="M238.73,180.13l-1.21,.17-3.8,.53h0l-10.87,1.53-5.62-3.06c.01-.43,.02-.86,.02-1.29v-2.66l10.09-1.42,9.36,5.09,2.04,1.11Z"/>
          <g>
            <path class="cls-3" d="M267.37,134.54c-.34-.18-.68-.35-1.04-.51-.35-.16-.72-.31-1.09-.45-.02-.01-.04-.01-.06-.02-.01-.01-.02-.01-.04-.02-.35-.13-.72-.25-1.09-.36-.14-.04-.28-.08-.42-.12-.27-.08-.54-.14-.82-.21-.06-.01-.12-.03-.18-.04-.03-.01-.07-.01-.1-.02-.28-.06-.57-.12-.86-.17-.02,0-.04-.01-.06-.01-.18-.04-.36-.06-.55-.09-.02-.01-.04-.01-.06-.01-.33-.05-.67-.1-1.02-.13-.06,0-.13-.02-.2-.02-.37-.04-.76-.07-1.15-.09-.07-.01-.15-.01-.23-.01h-.05s-.09,0-.13,0c-.42-.02-.86-.03-1.3-.03-1.7,0-3.5,.13-5.4,.4l-4.02,.57c-7.49,1.05-13.17,3.41-17.06,7.08s-5.84,8.55-5.85,14.65c0,.55,.01,1.08,.05,1.6,0,.26,.03,.51,.05,.75,.01,.18,.03,.36,.06,.54,0,.09,.01,.17,.03,.25,.06,.54,.14,1.07,.25,1.58,.02,.12,.05,.23,.07,.35,.04,.16,.08,.32,.12,.48,.21,.84,.48,1.63,.8,2.38,.05,.14,.11,.27,.18,.4,.46,.98,1.02,1.88,1.68,2.69,.08,.12,.18,.23,.28,.34,.03,.04,.07,.08,.11,.12,.12,.13,.24,.27,.38,.4,.01,.02,.02,.03,.04,.05,.34,.35,.7,.67,1.09,.98,.07,.06,.15,.12,.23,.18,.1,.08,.2,.15,.3,.22,.18,.14,.37,.27,.57,.39,.04,.03,.09,.06,.14,.09,.09,.06,.18,.12,.28,.18l-10.86-5.9c-1.22-.66-2.28-1.45-3.19-2.38-.17-5.84-1.49-10.55-3.96-14.11h0c.43-5.08,2.35-9.22,5.75-12.43,3.89-3.67,9.58-6.03,17.07-7.08l4.02-.57c6.52-.91,11.83-.26,15.93,1.96l11.31,6.16Z"/>
            <path class="cls-5" d="M231.57,169.04c-.09-.05-.18-.1-.27-.15-.1-.06-.19-.12-.28-.18,.18,.12,.36,.23,.55,.33Z"/>
          </g>
          <g>
            <path class="cls-4" d="M275.8,174.92c-.01,6.17-2.07,11.25-6.17,15.21-4.1,3.97-10.15,6.51-18.12,7.63l-4.66,.66c-4.8,.67-9,.44-12.6-.69-1.42-.44-2.72-1-3.89-1.69-.31-.17-.62-.36-.91-.56-.35-.23-.69-.48-1.01-.74-.3-.23-.59-.48-.87-.74-.04-.03-.08-.07-.12-.11-.23-.21-.45-.43-.65-.66-.09-.09-.17-.18-.26-.27-.24-.27-.48-.56-.7-.85-2-2.61-3.01-5.86-3-9.75l10.87-1.53h0l3.8-.53,1.25,.68c.17,1.81,.92,3.08,2.25,3.82,0,.01,.02,.01,.03,.02,.07,.04,.15,.07,.23,.11,.07,.03,.15,.07,.23,.1,.16,.07,.33,.13,.5,.18,.01,.01,.02,.01,.03,.01,.13,.04,.26,.07,.39,.11,.03,.01,.06,.01,.09,.02,.06,.02,.13,.03,.2,.04h.02c.14,.03,.28,.06,.42,.08h.01c.14,.02,.29,.04,.44,.04,.12,.02,.24,.03,.37,.03,.53,.03,1.1,.03,1.72-.02,.38-.03,.77-.07,1.18-.13l4.65-.66c5.94-.83,8.9-3.3,8.91-7.42v-.04c0-.2-.01-.4-.03-.59,0-.05-.01-.11-.01-.16-.02-.18-.05-.36-.09-.54-.02-.1-.05-.2-.07-.3-.03-.1-.06-.2-.09-.29-.06-.18-.13-.34-.21-.51,0,0-.01-.03-.03-.05-.16-.34-.37-.66-.63-.95-.13-.15-.27-.29-.42-.42-.06-.06-.12-.11-.19-.16-.07-.06-.14-.11-.21-.16-.04-.03-.08-.06-.13-.09-.16-.11-.32-.21-.5-.3-1.35-.73-3.23-1.1-5.63-1.13h-3.18s-5.19,.02-5.19,.02c-5.1,.02-9.19-.84-12.26-2.6-.19-.1-.37-.21-.55-.33-.05-.03-.1-.06-.14-.09-.2-.12-.39-.25-.57-.39-.1-.07-.2-.14-.3-.22-.08-.06-.16-.12-.23-.18-.39-.31-.75-.63-1.09-.98-.02-.02-.03-.03-.04-.05-.14-.13-.26-.27-.38-.4-.04-.04-.08-.08-.11-.12-.1-.11-.19-.22-.28-.34-.66-.81-1.22-1.71-1.68-2.69-.07-.13-.13-.26-.18-.4-.32-.75-.59-1.54-.8-2.38-.04-.16-.08-.32-.12-.48-.02-.12-.05-.23-.07-.35-.11-.51-.19-1.04-.25-1.58-.02-.08-.03-.16-.03-.25-.03-.18-.05-.36-.06-.54-.02-.24-.04-.49-.05-.75-.04-.52-.05-1.05-.05-1.6,.01-6.1,1.96-10.98,5.85-14.65s9.57-6.03,17.06-7.08l4.02-.57c1.9-.27,3.7-.4,5.4-.4,.44,0,.88,.01,1.3,.03,.04,0,.09,0,.13,0h.05c.08,0,.16,0,.23,.01,.39,.02,.78,.05,1.15,.09,.07,0,.14,.01,.2,.02,.35,.03,.69,.08,1.02,.13,.02,0,.04,0,.06,.01,.19,.03,.37,.05,.55,.09,.02,0,.04,.01,.06,.01,.29,.05,.58,.11,.86,.17,.03,.01,.07,.01,.1,.02,.06,0,.12,.03,.18,.04,.28,.07,.55,.13,.82,.21,.14,.04,.28,.08,.42,.12,.37,.11,.74,.23,1.09,.36,.02,.01,.03,.01,.04,.02,.02,0,.04,0,.06,.02,.37,.14,.74,.29,1.09,.45,.36,.16,.7,.33,1.04,.51,.03,.01,.05,.03,.08,.04,.39,.21,.76,.43,1.12,.67,4.23,2.76,6.34,6.96,6.33,12.6l-15.89,2.24v-.02c0-.22-.01-.43-.03-.64,0-.03,0-.06-.01-.08,0-.17-.04-.33-.07-.48,0-.09-.03-.18-.06-.26,0-.02,0-.03,0-.05-.02-.11-.05-.22-.09-.32-.01-.03-.02-.06-.03-.09-.05-.13-.09-.27-.17-.39,0,0-.01,0-.01-.02,0-.03-.02-.06-.04-.09-.07-.16-.16-.3-.26-.43-.08-.12-.18-.24-.29-.35-.04-.05-.08-.09-.13-.13-.07-.07-.15-.14-.23-.2-.06-.06-.13-.11-.2-.15-.14-.1-.29-.19-.45-.28h-.01s-.03-.03-.05-.03c-1.25-.61-3.04-.76-5.37-.43l-.52,.07-3.5,.5c-4.56,.64-7.05,2.5-7.46,5.58-.05,.31-.07,.63-.07,.96,0,.57,.06,1.1,.2,1.58,.29,1.13,.95,2,1.97,2.6,.09,.05,.17,.1,.26,.14,.11,.06,.22,.11,.34,.16,.47,.21,1,.37,1.59,.49,.14,.03,.29,.06,.44,.08,.17,.03,.33,.05,.51,.06,.23,.04,.48,.06,.73,.07,.27,.02,.54,.03,.83,.03l8.57,.05h.32c.41,0,.81,.01,1.21,.02,.4,.01,.8,.02,1.2,.05,.39,.02,.78,.05,1.15,.08,.36,.03,.7,.06,1.04,.1,.29,.04,.57,.07,.86,.12,.25,.03,.5,.07,.75,.12,.97,.16,1.89,.37,2.76,.62,.23,.07,.46,.13,.68,.21,.63,.2,1.23,.43,1.8,.68,.27,.12,.53,.24,.78,.37,5.25,2.64,7.87,7.48,7.86,14.53Z"/>
            <path class="cls-11" d="M231.57,169.04c-.09-.05-.18-.1-.27-.15-.1-.06-.19-.12-.28-.18,.18,.12,.36,.23,.55,.33Z"/>
            <path class="cls-10" d="M238.77,180.98l-1.25-.68,1.21-.17c0,.3,.01,.58,.04,.85Z"/>
          </g>
        </g>
        <g class="cls-69">
          <path class="cls-9" d="M186.95,190.65c-.08-.04-.16-.08-.24-.12l-.19-.11c.14,.08,.28,.16,.43,.23Z"/>
          <path class="cls-8" d="M207.72,141.49c-.13-.06-.26-.13-.4-.18-1.05-.5-2.16-.86-3.33-1.08-.14-.03-.28-.05-.42-.07-.22-.04-.44-.07-.67-.1-.06-.01-.13-.02-.19-.02-.25-.03-.51-.05-.77-.06-.04-.01-.08-.01-.12-.01-.32-.02-.64-.03-.97-.03-.94,0-1.91,.07-2.92,.21-3.95,.56-7.29,2.06-10.02,4.5-2.71,2.44-4.54,5.62-5.47,9.57l.56-14.26v-5.21c1.13-.36,2.3-.63,3.54-.8,3.88-.54,7.24-.04,10.1,1.52l11.08,6.02Z"/>
          <g>
            <path class="cls-7" d="M186.52,190.42l.19,.11c.08,.04,.16,.08,.24,.12-.15-.07-.29-.15-.43-.23Z"/>
            <path class="cls-6" d="M217.25,160.61c-.17-5.84-1.49-10.55-3.96-14.11h0c-.4-.58-.83-1.13-1.29-1.64-1.22-1.37-2.58-2.46-4.07-3.26-.07-.04-.14-.07-.21-.11-.13-.06-.26-.13-.4-.18-1.05-.5-2.16-.86-3.33-1.08-.14-.03-.28-.05-.42-.07-.22-.04-.44-.07-.67-.1-.06-.01-.13-.02-.19-.02-.25-.03-.51-.05-.77-.06-.04-.01-.08-.01-.12-.01-.32-.02-.64-.03-.97-.03-.94,0-1.91,.07-2.92,.21-3.95,.56-7.29,2.06-10.02,4.5-2.71,2.44-4.54,5.62-5.47,9.57l.56-14.26v-5.21s.03-11.93,.03-11.93l-15.88,2.23-.16,83.45,15.36-2.16v-5.62s6,3.26,6,3.26c-.22-.12-.44-.25-.65-.39,2.71,1.71,6.08,2.29,10.11,1.72,5.86-.82,10.56-3.69,14.1-8.61,1.89-2.63,3.28-5.63,4.16-9,.67-2.58,1.06-5.38,1.15-8.4,.01-.43,.02-.86,.02-1.29v-2.66l.03-13.35c0-.47-.01-.94-.02-1.39Zm-15.9,19.06c0,3.28-.8,5.93-2.39,7.94-1.6,2.01-3.88,3.23-6.84,3.64-.6,.09-1.15,.13-1.69,.13h-.05c-.26,0-.51,0-.75-.03-.25-.02-.49-.05-.73-.09-.16-.02-.32-.06-.48-.1-.13-.02-.26-.06-.39-.1-.06-.01-.12-.03-.18-.05-.11-.03-.21-.07-.32-.11-.06-.02-.12-.04-.18-.07-.14-.06-.27-.12-.4-.18-.08-.04-.16-.08-.24-.12l-.19-.11c-.42-.26-.81-.56-1.17-.9-1.23-1.18-1.99-2.85-2.29-5.02-.1-.7-.14-1.44-.14-2.24l.03-14.86c0-3.27,.83-5.93,2.45-7.95,1.16-1.43,2.64-2.46,4.44-3.07,.73-.27,1.51-.45,2.35-.57,2.13-.3,3.9-.08,5.33,.65l.13,.07c.1,.05,.19,.11,.29,.17,.14,.09,.28,.18,.42,.29,.11,.07,.21,.16,.31,.24,.12,.1,.23,.2,.34,.31,1.59,1.57,2.38,4,2.37,7.27l-.03,14.86Z"/>
            <path class="cls-35" d="M201.38,164.81l-.03,14.86c0,3.28-.8,5.93-2.39,7.94-1.6,2.01-3.88,3.23-6.84,3.64-.59,.08-1.15,.13-1.69,.13h-.05c-.26,0-.51,0-.75-.03-.25-.02-.49-.05-.73-.09-.16-.02-.32-.06-.48-.1-.13-.03-.26-.06-.39-.1-.06-.01-.12-.03-.18-.05-.11-.03-.21-.07-.32-.11-.06-.02-.12-.04-.18-.07-.14-.06-.27-.12-.4-.18-.15-.07-.29-.15-.43-.23-.42-.26-.81-.56-1.17-.9-1.23-1.18-1.99-2.85-2.29-5.02,1.86-.61,3.35-1.64,4.5-3.09,1.59-2.01,2.39-4.66,2.4-7.94l.02-14.86c0-.79-.04-1.54-.14-2.23,.73-.27,1.51-.45,2.35-.57,2.13-.3,3.9-.08,5.33,.65l.13,.07c.1,.05,.19,.11,.29,.17,.14,.09,.28,.18,.42,.29,.11,.07,.21,.16,.31,.24,.12,.1,.23,.2,.34,.31,1.59,1.57,2.38,4,2.37,7.27Z"/>
          </g>
          <polygon class="cls-29" points="183.03 122.82 167.15 125.05 155.75 118.85 171.63 116.62 183.03 122.82"/>
          <path class="cls-28" d="M167.15,125.05l-.16,83.45-7.72-4.2,.07-37.01c.01-5.08-1.21-9.16-3.66-12.25l.07-36.19,11.4,6.2Z"/>
        </g>
        <g class="cls-69">
          <g>
            <path class="cls-33" d="M139.11,199.41c-1.79,1.39-3.93,2.25-6.42,2.6-.06,.01-.12,.02-.17,.02l6.59-2.62Z"/>
            <path class="cls-32" d="M143.92,202.03l-.02,9.72-4.43-2.41c1.97-2.03,3.35-4.46,4.13-7.27l.32-.04Z"/>
          </g>
          <g>
            <path class="cls-37" d="M127.15,201.44c-.12-.06-.25-.12-.37-.18l-.21-.12c.19,.11,.38,.21,.58,.3Z"/>
            <path class="cls-36" d="M139.11,199.41c-1.79,1.39-3.93,2.25-6.42,2.6-.06,.01-.12,.02-.17,.02l6.59-2.62Z"/>
          </g>
          <path class="cls-46" d="M132.12,163.36s-.04,.01-.06,.01v-.05l.06,.04Z"/>
          <g>
            <path class="cls-30" d="M143.45,169.52v4.58l-11.13,1.56c-7.91,1.11-13.98,3.66-18.23,7.65-4.24,3.98-6.36,9.18-6.38,15.58-.01,5.87,1.69,10.28,5.11,13.22,.14,.12,.28,.23,.42,.34,.14,.12,.28,.23,.43,.33,.1,.07,.19,.14,.29,.21,.2,.14,.4,.27,.6,.39,.1,.06,.2,.13,.31,.19l-10.03-5.45v-6.31s-8.1-4.41-8.1-4.41c-.28-1.45-.42-3.02-.42-4.71,.01-6.4,2.13-11.6,6.38-15.58,1.88-1.77,4.13-3.26,6.74-4.46l.76,.41,13.77-1.94,1.05-.15c0-.75,.12-1.46,.35-2.13,.38-1.17,1.1-2.21,2.15-3.14,1.21-1.05,2.72-1.83,4.54-2.33,.02,0,.04-.01,.06-.01h.01c.67-.18,1.37-.33,2.12-.43,2.57-.36,4.64-.11,6.2,.74,.2,.11,.39,.23,.58,.36,1.62,1.15,2.43,2.98,2.42,5.49Z"/>
            <path class="cls-34" d="M115.18,213.74c-.1-.05-.19-.1-.28-.15,0-.01-.02-.01-.03-.02-.11-.06-.21-.13-.31-.19,.2,.13,.41,.25,.62,.36Z"/>
            <path class="cls-31" d="M110.23,172.29c-.01,.25-.02,.51-.03,.77l-.76-.41c.26-.13,.52-.25,.79-.36Z"/>
          </g>
          <g>
            <path class="cls-44" d="M132.52,202.03s.11-.01,.17-.02c2.49-.35,4.63-1.21,6.42-2.6l-6.59,2.62Zm-17.96,11.35c.1,.06,.2,.13,.31,.19,.01,.01,.02,.01,.03,.02,.09,.05,.18,.1,.28,.15-.21-.11-.42-.23-.62-.36Zm12.01-12.24l.21,.12c.12,.06,.25,.12,.37,.18-.2-.09-.39-.19-.58-.3Zm5.49-37.82v.05s.04-.01,.06-.01l-.06-.04Zm.46,38.71s.11-.01,.17-.02c2.49-.35,4.63-1.21,6.42-2.6l-6.59,2.62Zm0,0s.11-.01,.17-.02c2.49-.35,4.63-1.21,6.42-2.6l-6.59,2.62Z"/>
            <path class="cls-40" d="M155.68,155.04c-.82-1.04-1.78-1.97-2.88-2.78-.62-.46-1.27-.87-1.96-1.24-.05-.02-.09-.05-.14-.07-.69-.37-1.42-.7-2.18-.98-.4-.15-.82-.29-1.24-.41-.36-.11-.72-.21-1.1-.29-.01-.01-.03-.01-.05-.01-.13-.04-.27-.07-.41-.09-.36-.08-.72-.15-1.09-.21-.39-.06-.77-.12-1.17-.16-.16-.02-.32-.04-.48-.05-.31-.03-.62-.06-.94-.07-.02-.01-.04-.01-.07,0-.11-.02-.22-.02-.33-.02-2.08-.11-4.32,.01-6.72,.35-7.42,1.04-13.35,3.72-17.81,8.04-.56,.54-1.08,1.1-1.57,1.67-.23,.27-.46,.54-.67,.82-.21,.26-.41,.54-.6,.81-.13,.17-.25,.34-.36,.52-.26,.39-.51,.78-.73,1.17-.11,.17-.2,.34-.29,.52-.43,.77-.8,1.56-1.11,2.38-.07,.15-.13,.31-.18,.46-.15,.4-.28,.8-.39,1.2-.07,.19-.12,.38-.17,.58-.07,.21-.12,.42-.17,.64-.07,.29-.14,.58-.19,.87-.04,.19-.08,.37-.11,.56-.03,.21-.07,.41-.1,.62-.02,.14-.04,.27-.05,.4-.03,.2-.06,.4-.07,.6-.03,.2-.05,.4-.06,.61-.02,.24-.04,.48-.05,.72-.01,.03-.01,.06-.01,.09-.01,.25-.02,.51-.03,.77l13.77-1.94,1.05-.15c0-.75,.12-1.46,.35-2.13,.38-1.17,1.1-2.21,2.15-3.14,1.21-1.05,2.72-1.83,4.54-2.33v-.05l.06,.04h.01c.67-.18,1.37-.33,2.12-.43,2.57-.36,4.64-.11,6.2,.74,.2,.11,.4,.23,.58,.36,1.62,1.15,2.43,2.98,2.42,5.49v4.58l-11.13,1.56c-7.91,1.11-13.98,3.66-18.23,7.65-4.24,3.98-6.36,9.18-6.38,15.58-.01,5.87,1.69,10.28,5.11,13.22,.14,.12,.28,.23,.42,.34,.14,.12,.28,.23,.43,.33,.1,.07,.19,.14,.29,.21,.2,.14,.4,.27,.6,.39,.2,.13,.41,.25,.62,.36,3.1,1.69,6.95,2.21,11.56,1.56,4.45-.63,8.12-2.09,11.02-4.4,.61-.49,1.19-1.01,1.71-1.56,1.97-2.03,3.35-4.46,4.13-7.27l.32-.04-.02,9.72,15.36-2.16v-5.29s.08-37.01,.08-37.01c.01-5.08-1.21-9.16-3.66-12.25Zm-12.27,35.86c0,2.89-1.01,5.36-3.03,7.4-.4,.41-.82,.78-1.27,1.11-1.79,1.39-3.93,2.25-6.42,2.6-.06,.01-.12,.02-.17,.02-.63,.08-1.23,.12-1.8,.12-.22,0-.43-.01-.64-.02-.37-.02-.73-.06-1.07-.13-.12-.01-.24-.04-.36-.06-.18-.04-.36-.09-.54-.14-.19-.06-.37-.12-.55-.19-.14-.05-.28-.11-.41-.17-.12-.06-.25-.12-.37-.18l-.21-.12c-.19-.12-.37-.24-.54-.37-1.58-1.18-2.38-3-2.42-5.47l8.34-9.4c.22-.05,.44-.09,.67-.12l1.1-.15,9.71-1.36-.02,6.63Z"/>
          </g>
          <path class="cls-45" d="M150.7,150.95c-.69-.37-1.42-.7-2.18-.98-.4-.15-.82-.29-1.24-.41-.36-.11-.72-.21-1.1-.29-.01-.01-.03-.01-.05-.01-.13-.04-.27-.07-.41-.09-.36-.08-.72-.15-1.09-.21-.39-.06-.77-.12-1.17-.16-.16-.02-.32-.04-.48-.05-.31-.03-.62-.06-.94-.07-.02-.01-.04-.01-.07,0-.11-.02-.22-.02-.33-.02-2.08-.11-4.32,.01-6.72,.35-7.42,1.04-13.35,3.72-17.81,8.04-.56,.54-1.08,1.1-1.57,1.67-.23,.27-.46,.54-.67,.82-.21,.26-.41,.54-.6,.81-.13,.17-.25,.34-.36,.52-.26,.39-.51,.78-.73,1.17-.11,.17-.2,.34-.29,.52-.43,.77-.8,1.56-1.11,2.38-.07,.15-.13,.31-.18,.46-.15,.4-.28,.8-.39,1.2-.07,.19-.12,.38-.17,.58-.07,.21-.12,.42-.17,.64-.07,.29-.14,.58-.19,.87-.04,.19-.08,.37-.11,.56-.03,.21-.07,.41-.1,.62-.02,.14-.04,.27-.05,.4-.03,.2-.06,.4-.07,.6-.03,.2-.05,.4-.06,.61-.02,.24-.04,.48-.05,.72-.01,.03-.01,.06-.01,.09-.01,.25-.02,.51-.03,.77l-.76-.41-10.64-5.79c.15-6.35,2.46-11.69,6.91-16,4.46-4.33,10.39-7.01,17.81-8.05,6.48-.91,11.79-.24,15.93,2.01l11.25,6.13Z"/>
        </g>
        <g class="cls-69">
          <path class="cls-43" d="M104.85,201.81l-6.16,.86-10.26,1.44c-.13,.01-.26,.03-.38,.04-.12,.02-.23,.03-.34,.03h-.04c-.24,0-.47,0-.7-.02h-.12c-.1-.02-.21-.03-.3-.05h-.02c-.08-.01-.15-.02-.22-.04-.13-.02-.25-.05-.36-.09h-.01s-.07-.02-.11-.03h-.01c-.1-.04-.22-.08-.32-.11t-.02-.01s-.01-.01-.02-.01c-.16-.07-.31-.14-.46-.22-.42-.23-.81-.53-1.17-.9-.47-.49-.84-1.04-1.11-1.69h0c-.42-.97-.63-2.11-.63-3.43v-.38l11.36-1.59,3.29,1.79,8.11,4.41Z"/>
          <path class="cls-39" d="M74.84,217.89l-11.18-6.09c-2.65-1.43-4.74-3.55-6.28-6.33-1.72-3.1-2.58-6.87-2.57-11.29l.07-37.92,11.41-1.61-.09,45.73c0,4.42,.85,8.19,2.58,11.29,.4,.72,.83,1.39,1.31,2.02,.1,.15,.21,.29,.33,.43,.16,.21,.33,.41,.52,.61,.06,.09,.14,.17,.23,.25,.09,.1,.17,.2,.27,.29,.09,.1,.18,.19,.28,.28,.12,.12,.24,.23,.36,.33,.16,.16,.33,.31,.5,.44,.13,.12,.27,.23,.41,.33,.14,.12,.28,.23,.43,.32,.21,.16,.44,.32,.67,.46,.14,.1,.28,.19,.43,.27,.1,.06,.21,.12,.32,.19Z"/>
          <path class="cls-42" d="M104.85,201.81v6.31s-.03,9.12-.03,9.12l-18.01,2.53c-4.09,.57-7.69,.15-10.8-1.28-.36-.17-.71-.34-1.05-.54-.02-.01-.04-.01-.06-.03-.02-.01-.04-.02-.06-.03-.11-.07-.22-.13-.32-.19-.15-.08-.29-.17-.43-.27-.23-.14-.46-.3-.67-.46-.15-.09-.29-.2-.43-.32-.14-.1-.28-.21-.41-.33-.17-.13-.34-.28-.5-.44-.12-.1-.24-.21-.36-.33-.1-.09-.19-.18-.28-.28-.1-.09-.18-.19-.27-.29-.09-.08-.17-.16-.23-.25-.19-.2-.36-.4-.52-.61-.12-.14-.23-.28-.33-.43-.48-.63-.91-1.3-1.31-2.02-1.73-3.1-2.58-6.87-2.58-11.29l.09-45.73-11.41,1.61-7.13,1,.03-15.43,34.42-4.84-.11,60.21v.38c0,1.32,.21,2.46,.63,3.42h0c.27,.66,.64,1.21,1.11,1.7,.36,.37,.75,.67,1.17,.9,.15,.08,.3,.16,.46,.22,0,0,0,.01,.02,.01s.01,0,.02,.01c.1,.04,.21,.08,.32,.1h.01s.08,.04,.11,.04h.01c.11,.04,.23,.07,.36,.09,.07,.02,.14,.03,.22,.04h.02c.09,.02,.2,.03,.3,.05h.12c.23,.03,.46,.03,.7,.02h.04c.11,0,.22-.01,.34-.03,.12-.01,.25-.03,.38-.04l10.26-1.44,6.16-.86Z"/>
          <polygon class="cls-41" points="47.78 141.83 47.75 157.26 36.36 151.06 36.39 135.63 47.78 141.83"/>
          <polygon class="cls-38" points="82.2 136.99 47.78 141.83 36.39 135.63 70.81 130.79 82.2 136.99"/>
        </g>
      </g>
    </g>
  </g>
</svg>